<svg width="28" height="28" viewBox="0 0 28 28" fill="none" xmlns="http://www.w3.org/2000/svg">
<path fill-rule="evenodd" clip-rule="evenodd" d="M14 28C21.732 28 28 21.732 28 14C28 6.26801 21.732 0 14 0C6.26801 0 0 6.26801 0 14C0 21.732 6.26801 28 14 28Z" fill="#1E2329"/>
<path fill-rule="evenodd" clip-rule="evenodd" d="M14 17C15.6569 17 17 15.6569 17 14C17 12.3431 15.6569 11 14 11C12.3431 11 11 12.3431 11 14C11 15.6569 12.3431 17 14 17Z" fill="#C593D2"/>
<path d="M20.125 14C20.125 17.3827 17.3827 20.125 14 20.125C10.6173 20.125 7.875 17.3827 7.875 14C7.875 10.6173 10.6173 7.875 14 7.875C17.3827 7.875 20.125 10.6173 20.125 14Z" stroke="#C593D2" stroke-width="1.75"/>
</svg>
