<svg width="1920" height="1280" viewBox="0 0 1920 1280" fill="none" xmlns="http://www.w3.org/2000/svg">
<rect y="0.0457458" width="1919.9" height="1279.95" fill="#86FFE1"/>
<path d="M1920 1.49869C1885.62 1.45328 1855.82 -1.03645 1834.58 13.1023C1834.67 20.8262 1829.72 41.5336 1825.83 43.877C1820.5 45.1559 1815.16 46.4323 1809.83 47.7113C1803.02 49.5855 1796.19 51.3386 1788.89 52.7563C1785.91 53.334 1782.09 54.2647 1778.54 53.7148C1776.05 53.3289 1753.52 36.9022 1752.76 34.8463C1752.68 32.9292 1752.59 31.0122 1752.5 29.095C1751.69 21.6713 1751.27 11.3542 1753.28 5.03022C1755.47 4.17256 1757.75 3.32499 1760.48 3.0122V2.9617C1760.31 2.64134 1760.14 2.32355 1759.97 2.00319C1748.53 1.3095 1735.86 -0.94064 1723.38 0.439179C1719.68 0.847827 1715.84 0.64103 1713.09 2.00319C1710.42 3.32252 1708.79 7.08551 1707.57 9.87897L1707.53 9.97438C1706.81 11.6241 1705.27 14.3509 1705.42 16.4824C1712.97 25.7653 1720.52 35.0482 1728.06 44.331C1728.88 46.4651 1726.43 52.8698 1725.85 54.3707C1722.55 62.9498 1717.89 70.7192 1712.88 77.7293L1710.05 81.7148C1705.61 84.1667 1698.11 77.1592 1695.33 75.459C1687.31 70.5426 1670.24 60.5912 1656.48 63.2499C1652.47 64.0269 1650.24 66.3426 1647.43 68.295L1636.26 76.0644C1620.72 86.8608 1605.18 97.6571 1589.64 108.454C1591.66 116.894 1597.73 125.993 1602.3 132.417C1603.74 134.166 1605.18 135.916 1606.62 137.664C1607.65 140.003 1604.89 145.192 1604 145.837C1596.79 149.2 1589.59 152.565 1582.38 155.927C1581.13 156.349 1579.12 156.407 1577.6 156.18C1570.67 155.14 1566.47 151.124 1560.88 148.814C1547.87 143.786 1534.87 138.757 1521.87 133.729C1517.5 132.047 1513.12 130.367 1508.75 128.684C1506.83 130.248 1504.91 131.812 1502.99 133.376C1500.14 136.168 1497.29 138.958 1494.44 141.751C1494.56 144.074 1507.41 156.197 1509.37 159.358C1511.79 163.27 1508.96 174.483 1507.92 177.974C1507.17 180.514 1506.51 184.275 1504.84 186.046C1503.24 186.417 1501.65 186.785 1500.05 187.156C1498.99 186.432 1497.92 185.711 1496.86 184.987C1494.27 183.675 1491.68 182.363 1489.09 181.052C1473.87 174.347 1454.66 170.596 1441.49 161.628L1437.84 158.954L1434.75 90.7959C1422.21 81.1951 1409.67 71.5894 1397.14 61.9887C1394.07 59.668 1390.99 57.3473 1387.92 55.0266C1387.31 53.8889 1389.07 49.308 1389.42 48.9725C1391.51 48.3343 1393.6 47.6936 1395.7 47.0554C1400.19 45.3451 1404.26 43.5743 1410 42.9689C1414 42.5476 1417.3 44.2579 1420.34 45.1382C1426.98 46.9872 1433.62 48.8388 1440.26 50.6878C1464.42 57.4986 1488.6 64.3094 1512.76 71.1202C1519.86 73.1206 1526.96 75.1235 1534.07 77.1238C1537.23 78.0546 1540.79 79.9238 1544.87 79.495C1553.45 78.597 1559.23 75.6683 1566.07 73.2392C1569.76 72.3638 1573.45 71.491 1577.14 70.6157C1581.11 69.6395 1585.09 68.6658 1589.07 67.6896C1594.52 65.2882 1599.23 61.5094 1603.74 58.104C1608.6 54.4388 1613.7 50.5793 1617.68 46.0464C1618.8 44.8179 1619.92 43.592 1621.03 42.3635C1620.64 36.9981 1620.24 31.6327 1619.85 26.2698C1619.56 22.0496 1619.26 17.827 1618.97 13.6068C1615.03 9.57075 1611.08 5.53472 1607.14 1.49869H1539.06C1458.5 1.6677 1377.92 1.83418 1297.36 2.00319C1288.96 13.5891 1280.55 25.1775 1272.14 36.7635C1271.57 38.9555 1277.91 49.4693 1279.15 51.5158L1279.19 51.5959C1285.7 62.3873 1292.95 72.3285 1299.62 82.9256C1300.87 84.8982 1304.36 89.0932 1304.67 91.3509C1305.14 94.8824 1303.46 98.0204 1302.45 100.381C1299.06 108.295 1294.58 115.118 1290.72 122.63C1289.88 124.272 1285.92 131.517 1286.55 133.729C1288.34 135.916 1290.12 138.101 1291.9 140.288C1297.57 147.111 1310.35 159.686 1311.25 170.003C1311.43 171.96 1308.54 176.37 1307.75 178.075C1304.97 184.099 1301.95 190.017 1301.48 198.255C1305.13 199.406 1308.21 201.588 1311.2 203.452C1318.74 208.151 1325.51 213.658 1332.35 219.041L1342.64 227.466C1342.52 228.911 1342.4 230.359 1342.28 231.805C1340.25 244.039 1333.44 252.24 1326.18 259.401C1316 269.002 1305.83 278.608 1295.66 288.208C1289.69 293.69 1283.72 299.174 1277.75 304.655C1266.55 314.102 1256.33 324.752 1244.87 333.967C1245.21 334.807 1245.56 335.649 1245.9 336.489C1254.3 342.039 1262.71 347.588 1271.12 353.138V357.225C1268.96 363.183 1250.12 371.875 1244.41 376.598L1240.81 380.28C1240.19 381.875 1243.78 386.039 1242.3 389.008C1235.78 396.727 1229.26 404.446 1222.75 412.165C1224.5 421.338 1226.25 430.513 1228 439.689L1230.46 452.576C1229.54 455.225 1220.67 461.427 1221.25 464.179C1225.01 467.174 1228.77 470.165 1232.52 473.16L1233.76 485.52C1235.73 495.264 1238 507.562 1243.02 514.428C1246.54 519.249 1264.77 521.461 1271.58 524.266C1276.02 526.095 1276.49 530.983 1279.4 534.255C1283.24 532.875 1287.09 531.498 1290.93 530.118C1297.25 529.684 1321.92 539.628 1324.07 542.68C1325.69 544.988 1326.28 549.166 1326.9 552.215C1327.57 555.538 1328.19 560.451 1327.15 563.819C1326.3 566.611 1321.23 570.806 1323.09 574.666C1325.06 577.642 1327.03 580.619 1329.01 583.596C1331.75 587.844 1334.36 593.557 1338.22 596.763C1344.35 601.864 1350.5 601.125 1351.39 611.949C1362.13 615.051 1388.96 626.562 1372.02 639.596C1367.39 643.16 1358.42 642.668 1350.82 641.866C1346.57 641.417 1342.63 642.37 1339.55 643.228C1340.14 648.19 1342.47 653.129 1344.13 657.505C1345.32 660.633 1350.23 675.912 1351.9 677.03C1357.83 680.977 1361.66 671.627 1365.03 670.522L1382.62 670.976C1387.55 670.338 1392.47 669.697 1397.39 669.059C1399.25 668.766 1406.09 667.389 1407.48 668.15C1411.67 670.448 1427.86 689.156 1428.06 694.435C1428.19 697.682 1418.84 701.491 1423.28 708.208C1426.71 713.417 1440.36 708.96 1445.82 712.143C1451.56 715.501 1454.75 723.338 1456.83 730.255C1457.39 732.543 1457.96 734.828 1458.53 737.116L1491.61 748.72C1496.96 749.54 1501.56 746.957 1505.3 745.592C1507.81 744.674 1510.18 744.275 1513.38 743.927C1514.46 743.995 1515.54 744.061 1516.62 744.129L1533.55 760.273C1539.43 760.442 1545.32 760.608 1551.2 760.777C1565.57 762.851 1580.01 766.723 1591.65 771.826C1593.05 772.532 1594.46 773.239 1595.87 773.945L1596.79 778.687C1598.8 792.559 1587.36 796.332 1585.88 807.545C1584.48 818.256 1596.96 828.932 1588.51 839.026C1581.48 847.413 1570.44 841.941 1558.51 844.676C1556.27 845.189 1554.89 846.801 1553.26 847.956C1549.95 850.343 1546.64 852.732 1543.33 855.12V863.696C1548.9 863.684 1563.21 858.391 1567.46 861.123C1568.49 861.782 1568.8 864.716 1569.01 866.168C1569.32 868.399 1569.16 872.305 1568.08 873.736L1539.78 883.574C1537.29 884.445 1530.96 885.144 1530.98 888.417C1533.37 889.993 1543.39 897.672 1541.78 902.089L1517.14 932.813L1502.21 938.413C1504.17 939.995 1505.29 942.602 1506.9 944.518C1509.71 947.868 1513.57 950.437 1517.55 952.64C1531.28 960.258 1548.77 963.235 1560.77 972.316C1569.11 978.624 1576.01 986.299 1584.7 992.294C1586.33 993.32 1587.96 994.346 1589.59 995.372C1590.48 995.103 1591.37 994.834 1592.26 994.565C1594.35 994.103 1597.13 994.009 1599.47 994.312C1608.01 995.419 1614.53 998.54 1622.47 999.913L1651.13 1003.04C1655.13 1003.59 1659.32 1003.69 1662.81 1004.65C1677.04 1008.58 1690.25 1014.47 1701.66 1021.4C1704.45 1023.1 1706.85 1025.59 1709.54 1027.16L1722.81 1023.52C1725.72 1023.07 1728.87 1023.72 1731.3 1024.13C1738.98 1025.43 1746.33 1026.86 1752.92 1029.33C1758.3 1031.34 1762.22 1042.76 1766.71 1046.38C1769.61 1048.72 1774.72 1049.44 1778.9 1050.41C1789.2 1052.81 1794.15 1054.9 1799.74 1061.87C1804.47 1067.76 1808.53 1074.04 1817.24 1076.04L1820.69 1076.6C1823.24 1073.92 1825.8 1071.25 1828.35 1068.58L1840.24 1057.43C1840.93 1055.82 1834.26 1048.51 1833.29 1047.29L1810.34 1018.53C1806.63 1011.22 1813.8 1003.66 1812.92 996.28C1812.48 992.657 1811.04 990.299 1809.31 987.956C1805.34 982.553 1784.75 966.031 1786.72 957.988C1788.71 954.978 1790.7 951.967 1792.69 948.958C1797.67 942.008 1802.78 935.274 1808.13 928.727C1811.62 924.462 1814.96 919.899 1820.38 917.527C1825.03 915.49 1831.5 915.933 1837.31 914.601C1844.18 913.024 1853.88 902.788 1854.65 895.48C1846.23 893.475 1841.3 890.509 1844.2 880.295C1844.82 878.123 1846.1 874.802 1845.33 871.92C1843.76 866.028 1835.36 857.177 1831.49 852.749L1827.94 849.57H1812.35H1807.2C1803.54 848.667 1794.07 838.494 1791.46 835.495C1789.89 833.689 1779.94 822.884 1780.03 821.167L1780.42 820.14C1780.82 819.053 1781.22 817.966 1781.63 816.878C1784.62 810.274 1790.38 805.784 1792.54 798.666C1793.59 795.19 1792.56 791.615 1791.1 789.332C1790.43 788.296 1788.58 787.181 1788.83 785.599C1789.55 781.122 1791.65 777.507 1793.31 773.895C1796.95 765.999 1801.52 758.674 1806.02 751.545C1806.93 750.102 1811.61 741.846 1812.66 741.556C1823.83 738.463 1830.63 758.179 1843.33 756.741C1843.32 749.318 1843.91 740.35 1846.83 735.401C1847.86 733.653 1850.48 732.626 1852.18 731.516L1868.28 721.123C1883.39 711.677 1896.97 693.149 1920 692.165V1.49869Z" fill="#4AB14A"/>
<path fill-rule="evenodd" clip-rule="evenodd" d="M842.471 1.49869C835.2 11.1675 827.924 20.8389 820.653 30.5077C809.692 45.1358 798.732 59.7714 787.771 74.3995C779.728 84.2373 771.68 94.0751 763.637 103.913C749.968 120.728 736.295 137.548 722.625 154.363C714.48 160.904 706.329 167.448 698.183 173.989C687.701 182.439 678.413 192.267 667.926 200.626C644.963 218.93 609.809 224.817 585.284 241.693C580.02 247.444 574.751 253.196 569.487 258.947C566.224 262.726 561.289 265.306 558.68 269.643C557.067 272.324 560.397 298.379 561.099 303.798C562.316 313.651 563.536 323.509 564.753 333.362C565.506 341.787 566.263 350.212 567.017 358.637C568.589 370.763 570.022 382.422 572.626 393.095C573.876 398.223 575.574 413.328 578.543 415.747C590.515 422.119 602.489 428.496 614.461 434.868C619.72 436.858 636.992 429.84 641.27 428.41C645.593 427.351 649.915 426.291 654.238 425.232C666.809 414.587 679.385 403.942 691.956 393.297C698.198 387.982 704.445 382.667 710.687 377.354C712.933 377.859 715.182 378.363 717.428 378.868C722.059 385.257 726.691 391.649 731.322 398.039C732.351 397.703 733.38 397.365 734.409 397.03C737.715 381.827 750.827 369.708 759.572 359.192C762.333 356.334 765.096 353.474 767.857 350.616C769.383 341.57 770.911 332.519 772.437 323.473C773.8 317.306 776.36 312.132 777.171 305.059C778.179 296.27 763.949 287.076 760.138 280.439C757.745 276.269 758.962 269.443 758.286 263.336C758.01 252.406 757.738 241.474 757.462 230.544C756.845 224.941 756.325 216.405 757.977 212.079C762.107 201.262 766.776 190.592 772.282 180.951C773.497 178.824 776.697 171.887 778.612 171.012C780.601 171.095 782.592 171.181 784.581 171.264C789.925 171.844 805.642 172.177 807.994 169.499C808.972 168.386 815.214 156.641 814.684 154.817C813.894 153.808 813.106 152.799 812.317 151.79C809.787 148.582 807.112 145.577 805.884 141.095C805.73 140.288 805.576 139.481 805.421 138.673C808.509 134.418 811.596 130.162 814.684 125.909C822.881 114.139 831.083 102.364 839.281 90.5941C846.508 79.4294 853.673 68.2168 860.378 56.4896C866.399 44.331 872.419 32.17 878.44 20.014C880.789 16.1469 883.141 12.2774 885.49 8.41037C886.931 6.59416 888.371 4.77792 889.812 2.9617C889.47 2.47485 889.125 1.98553 888.783 1.49869C873.348 1.49869 857.906 1.49869 842.471 1.49869Z" fill="#4AB14A"/>
<path fill-rule="evenodd" clip-rule="evenodd" d="M898.045 1.49869C891.243 9.82553 887.666 20.6723 882.042 30.3563C877.995 36.9804 873.945 43.6096 869.898 50.2338C862.833 62.357 855.762 74.4853 848.697 86.6085C843.593 95.0943 838.236 103.348 832.282 110.976C825.726 119.376 817.933 127.811 813.552 138.118C811.082 143.933 819.672 148.935 821.373 153.808C822.413 156.79 818.136 166.174 817.154 167.884C815.239 171.219 812.358 176.408 808.406 177.621C799.828 180.255 788.098 174.955 780.618 178.832C779.44 179.442 776.88 186.619 776.142 188.266C772.01 197.463 767.872 206.665 763.74 215.862C764.016 230.491 764.288 245.126 764.564 259.754C765.274 265.937 763.874 272.892 766.313 277.109C770.795 284.853 785.947 291.906 783.809 304.1C782.746 308.288 781.681 312.475 780.618 316.662C779.144 324.028 777.667 331.394 776.193 338.76C775.506 341.908 775.038 344.978 774.546 348.446C774.374 350.028 774.204 351.607 774.032 353.189C771.492 355.812 768.955 358.435 766.416 361.059C763.259 365.009 760.102 368.962 756.948 372.915C749.584 381.928 740.718 391.435 737.445 404.194C736.699 407.102 738.032 410.447 738.732 412.67C741.351 420.971 745.038 428.244 748.457 435.725C752.692 447.059 756.93 458.395 761.167 469.729C768.714 483.348 776.263 496.972 783.809 510.594C787.097 518.255 787.691 528.216 789.778 537.181C790.578 540.617 791.16 544.943 793.123 547.372C802.107 547.377 814.501 549.191 820.91 545.556C823.087 544.323 824.201 540.41 825.438 538.241C829.743 530.355 834.05 522.465 838.354 514.579C846.809 513.417 871.774 520.177 876.382 514.63C876.672 513.149 876.966 511.671 877.256 510.19C878.185 506.939 879.387 503.945 880.704 501.059C883.74 495.156 886.776 489.253 889.812 483.351C892.128 470.251 894.443 457.149 896.759 444.05C898.437 434.331 897.768 416.965 902.574 410.753C908.744 402.774 920.762 405.458 929.641 400.612C938.077 396.008 947.229 375.735 951.768 366.306C953.756 362.403 955.748 358.501 957.737 354.601C957.225 350.081 942.899 340.321 939.057 337.498C929.522 330.493 924.755 319.021 917.908 309.398C915.299 305.732 910.776 302.483 910.395 296.835C913.928 286.478 917.463 276.115 920.996 265.758C924.819 254.543 928.645 243.323 932.471 232.108C943.704 224.659 954.942 217.207 966.176 209.758C983.504 197.879 999.742 185.282 1015.99 172.475C1022.21 167.362 1028.44 162.249 1034.67 157.138C1034.72 157.07 1034.77 157.005 1034.82 156.936C1034.03 149.051 1033.24 141.161 1032.45 133.275C1032.25 131.376 1032.04 129.474 1031.84 127.574C1034.65 124.378 1037.46 121.182 1040.28 117.989C1045.15 112.406 1050.02 106.821 1054.89 101.239C1057.95 97.5992 1060.7 93.1923 1065.44 91.1995C1073.88 87.6428 1084.77 86.8431 1094.61 84.5401C1099.66 83.3595 1103.79 81.4903 1107.94 79.7473C1108.39 75.4262 1103.44 70.1465 1101.92 66.8319C1100.84 64.4582 1100.36 61.6103 1099.97 58.5076C1097.64 40.0882 1105.89 17.2241 1099.25 1.49869C1032.19 1.49869 965.105 1.49869 898.045 1.49869Z" fill="#4AB14A"/>
<path fill-rule="evenodd" clip-rule="evenodd" d="M1108.51 1.49869C1106.68 5.93328 1106.31 13.7556 1107.02 19.9131C1107.72 26.6053 1108.42 33.3001 1109.13 39.9924C1109.18 43.7762 1109.23 47.5599 1109.28 51.3437C1109.35 53.9999 1109.42 56.6586 1109.49 59.3149C1110.19 65.3538 1111.19 70.2323 1113.6 74.45C1114.5 75.8803 1115.39 77.308 1116.28 78.7383C1118.51 79.9667 1120.74 81.1927 1122.97 82.4211C1137.73 90.8312 1158.53 95.9368 1161.77 115.618C1162.25 118.561 1162.49 123.251 1161.56 126.01C1160.39 129.504 1150.41 132.965 1146.59 134.536C1137.13 138.426 1130.22 145.126 1122.56 150.882C1097.44 169.736 1071.8 188.107 1052.06 212.23C1046.4 219.144 1040.16 226.19 1036.26 234.731C1035.42 236.583 1034.02 239.168 1034.31 241.844C1037.99 252.472 1041.68 263.102 1045.37 273.729C1046.56 276.865 1048.22 279.677 1047.99 284.021C1047.46 294.086 1044.43 302.264 1042.69 311.567C1042.12 314.639 1041.39 319.397 1042.59 322.363C1043.46 324.515 1062.46 332.542 1065.95 334.522C1073.8 338.972 1080.24 350.817 1084.84 358.688C1098.01 358.862 1109.83 356.723 1120.29 353.844C1135.1 349.771 1148.74 345.396 1162.74 340.727C1169.51 338.472 1176.68 335.813 1184.05 334.471C1201.95 333.109 1219.87 331.747 1237.77 330.385C1256.6 313.401 1275.44 296.414 1294.27 279.43C1306.72 269.332 1319.45 259.298 1328.54 245.931C1330.81 242.601 1336.06 234.918 1335.39 229.484C1324.99 221.833 1314.6 214.18 1304.2 206.529C1301.95 204.884 1294.24 200.427 1293.86 197.7C1292.87 190.579 1300.47 178.121 1302.71 172.223C1303.16 170.641 1303.6 169.062 1304.05 167.481C1302.4 165.581 1300.76 163.679 1299.11 161.78C1295.83 157.832 1277.84 136.877 1278.83 131.61C1280.24 129.07 1281.65 126.532 1283.05 123.992C1287.71 115.842 1292.2 107.523 1295.45 98.1112C1296.2 95.9443 1297.51 92.8845 1297.31 90.2409C1294.11 87.9707 1291.78 83.4049 1289.64 80.1004C1283.21 70.1516 1276.97 59.9909 1271.12 49.4265C1270.13 47.6431 1263.97 37.495 1264.43 35.7545C1270.39 27.4806 1276.36 19.2068 1282.33 10.9329C1284.08 8.53145 1288.5 4.55851 1287.58 1.49869C1227.9 1.49869 1168.19 1.49869 1108.51 1.49869Z" fill="#4AB14A"/>
<path fill-rule="evenodd" clip-rule="evenodd" d="M236.245 60.014C232.54 62.2338 228.835 64.4537 225.13 66.6735C216.974 71.3906 208.759 76.3927 199.865 80.2951C196.598 81.7279 189.863 85.8648 185.405 85.3401C173.399 81.2864 161.39 77.2328 149.384 73.1816C144.023 74.0973 139.895 76.756 136.16 79.3365C126.291 86.1498 117.942 96.1264 103.227 97.8518C101.62 98.041 93.1624 91.152 91.5456 89.9815C80.6376 82.1794 69.7262 74.3747 58.8184 66.5725C53.1413 67.3621 47.4626 68.1542 41.7858 68.9437C33.3197 70.2529 23.4832 69.3196 16.8287 72.223C16.0398 72.7099 15.2505 73.1992 14.4616 73.6861C9.67629 81.4201 4.88993 89.1592 0.104858 96.8933C2.14053 98.7373 3.80263 100.342 6.69147 101.434C21.4998 107.026 48.4591 101.086 57.2232 112.583C58.8245 114.685 59.7961 117.399 59.7961 121.059C59.6244 122.757 59.4531 124.457 59.2815 126.155C56.0841 132.178 38.828 132.292 30.465 133.924C27.3513 134.532 24.7977 135.627 22.2832 136.648C22.4376 137.506 22.592 138.363 22.7463 139.221C27.0392 139.526 30.9333 141.269 34.6331 142.4C43.9221 145.235 52.8958 148.57 61.3913 152.237C64.584 153.615 72.5057 155.824 69.6245 161.823C63.4328 166.061 57.2396 170.299 51.0482 174.536C51.3912 175.545 51.7344 176.554 52.0774 177.563C77.9237 182.054 103.778 186.544 129.624 191.034C136.793 192.699 143.965 194.364 151.134 196.028C153.994 196.583 157.527 197.474 161.014 197.088C166.578 196.472 170.875 194.066 175.525 192.295C184.529 188.933 193.536 185.567 202.54 182.205C225.47 173.765 248.41 165.319 271.34 156.879C277.597 153.705 283.957 145.005 288.527 139.776C291.73 136.111 296.268 133.694 300.053 130.594C302.896 128.266 305.531 125.446 303.707 121.261C299.842 112.394 289.942 107.173 282.712 101.484C280.201 99.5091 277.049 97.1304 275.662 94.1185C272.652 87.5801 277.36 77.374 278.852 71.7185C279.37 69.761 280.548 64.61 278.492 63.5455C264.411 62.3675 250.327 61.192 236.245 60.014Z" fill="#4AB14A"/>
<path fill-rule="evenodd" clip-rule="evenodd" d="M1168.66 376.843C1164.41 379.419 1157.88 380.07 1152.25 381.081C1136.49 383.911 1117.83 384.416 1107.48 392.634C1102.21 396.822 1100.62 403.537 1103.57 411.301C1104.17 412.746 1104.77 414.194 1105.37 415.64C1106.6 416.296 1107.84 416.951 1109.07 417.607C1111.86 419.529 1116.9 425.276 1120.29 425.78C1123.89 426.315 1126.16 421.575 1130.89 423.914C1131.49 424.199 1132.09 424.486 1132.69 424.771C1133.98 426.424 1132.17 436.155 1131.92 438.393C1131.68 440.565 1132.24 442.363 1132.64 443.892C1139.98 442.411 1147.33 440.933 1154.67 439.452C1159.82 440.719 1164.2 443.776 1168.3 446.263C1176.8 451.419 1185.41 457.067 1195.88 460.087C1207.53 463.444 1218.15 459.388 1221.51 450.602C1222.66 447.585 1222.32 443.201 1221.56 440.058C1219.44 431.249 1212.44 419.693 1215.85 408.879C1218.37 400.906 1226.21 396.441 1231.08 390.566C1232.08 389.204 1233.07 387.842 1234.07 386.479C1233.72 385.453 1233.38 384.429 1233.04 383.402C1224.29 382.07 1215.94 385.095 1206.95 384.007C1194.19 381.619 1181.42 379.232 1168.66 376.843Z" fill="#4AB14A"/>
<path fill-rule="evenodd" clip-rule="evenodd" d="M260.997 418.727C258.303 421.946 255.241 424.829 252.712 428.262C243.74 440.436 236.904 454.366 232.18 470.742C230.472 476.662 229.618 482.804 228.784 489.812C228.715 490.839 228.648 491.863 228.578 492.889C229.949 494.183 231.323 495.48 232.695 496.774C235.355 499.839 237.758 503.073 239.384 507.167C241.79 513.223 241.793 520.975 242.832 528.558C243.485 533.333 244.232 537.932 245.045 542.331C245.559 542.331 246.074 542.331 246.588 542.331C247.394 539.939 253.281 532.523 255.285 531.736C255.987 531.855 256.692 531.971 257.395 532.089C262.569 533.489 267.684 537.742 269.178 542.734C271.134 549.265 262.867 556.391 261.1 561.552C260.894 562.392 260.688 563.235 260.482 564.075C262.198 566.413 263.912 568.749 265.628 571.088C290.091 570.729 305.428 581.369 315.954 594.85C318.027 597.506 320.932 600.614 321.974 604.082C324.272 611.73 320.212 624.33 317.394 629.055C313.16 636.156 285.812 626.412 275.919 629.358C273.506 630.077 272.101 632.862 271.134 635.008C265.466 647.593 277.262 664.716 284.153 670.424C283.62 671.971 283.09 673.52 282.558 675.066C276.606 677.47 270.653 679.876 264.702 682.28C262.347 683.166 256.692 683.769 256.365 686.569C257.737 689.78 259.111 692.993 260.482 696.205C261.823 697.259 272.814 697.978 275.559 698.374C287.268 700.064 300.743 700.458 308.338 706.244C308.171 710.439 286.255 714.712 281.683 716.839C268.785 728.793 255.884 740.752 242.986 752.709C243.159 753.549 243.329 754.392 243.501 755.232C243.949 755.842 250.618 758.314 252.3 757.754C258.784 753.383 265.268 749.009 271.751 744.637C280.654 745.966 289.556 747.293 298.458 748.623C304.648 743.091 310.844 737.556 317.034 732.024C320.485 730.642 328.672 736.777 331.082 737.675C333.354 738.522 336.995 738.724 339.933 738.28C347.299 737.168 353.297 734.701 359.796 732.781C366.948 731.351 374.101 729.923 381.254 728.493C395.027 728.324 408.802 728.157 422.575 727.988C429.948 722.272 437.328 716.551 444.701 710.835C443.111 704.622 433.442 698.018 435.799 690.504C437.52 685.017 445.347 683.817 448.767 679.808C450.429 677.858 450.887 669.857 451.494 666.742C451.975 664.118 452.454 661.495 452.935 658.871C451.617 655.748 429.912 654.391 424.89 653.019C421.926 652.209 419.124 651.049 417.377 649.033C413.464 644.521 410.976 638.57 408.475 632.688C402.714 619.147 398.533 602.218 391.391 589.906C390.249 587.936 381.189 585.973 378.681 584.608C374.559 582.363 370.79 579.757 367.875 576.334C362.953 570.558 359.726 563.452 356.091 556.356C354.135 552.691 352.18 549.023 350.225 545.358C348.593 541.811 347.513 537.742 345.336 534.713C343.939 532.768 342.009 531.509 339.367 530.778C334.687 529.484 314.961 530.558 313.432 527.599C313.106 526.103 312.781 524.605 312.455 523.109C316.16 518.468 319.864 513.826 323.569 509.185C332.186 497.48 345.804 479.023 343.844 458.583C328.738 454.943 314.199 459.481 300.979 462.014C298.286 462.531 286.237 463.878 284.153 462.115C282.488 460.707 287.119 452.012 287.909 450.662C292.232 443.274 297.686 437.033 302.729 430.381C304.942 427.185 307.154 423.989 309.367 420.796C309.025 420.274 308.68 419.754 308.338 419.232C298.322 419.905 288.303 420.576 278.286 421.25C272.523 420.41 266.76 419.567 260.997 418.727Z" fill="#4AB14A"/>
<path fill-rule="evenodd" clip-rule="evenodd" d="M1148.08 447.48C1143.56 451.103 1133.04 449.382 1130.12 454.493C1127.09 459.8 1127.01 483.386 1122.81 485.369C1119.57 485.891 1116.33 486.41 1113.09 486.933C1087.64 489.654 1088.89 474.726 1078.25 462.716C1076.93 461.223 1074.68 459.041 1072.59 458.428C1066.95 456.768 1059.67 463.625 1056.48 465.794C1053.81 467.613 1051.16 469.028 1048.77 471.041C1038.38 479.771 1031.63 497.474 1034.92 516.597C1038.75 516.663 1040.74 515.389 1043.47 514.378C1050.19 511.923 1056.91 509.466 1063.64 507.012C1080.69 507.852 1097.74 508.694 1114.79 509.534C1116.95 509.181 1119.11 508.828 1121.27 508.475C1127.32 507.204 1134.11 505.203 1141.6 506.053C1142.75 506.205 1143.89 506.356 1145.04 506.507C1146.93 509.199 1148.82 511.888 1150.7 514.579C1155.63 515.47 1160.55 516.363 1165.47 517.253C1174.62 522.167 1179.71 531.939 1190.48 535.163C1194.95 536.5 1199.5 533.35 1203.19 531.783C1211.57 528.221 1219.68 524.501 1227.27 520.179C1229.88 518.633 1232.49 517.084 1235.09 515.538C1234.42 508.162 1230.4 504 1228.51 497.88C1227.27 490.33 1226.04 482.778 1224.8 475.228C1221.05 472.706 1217.29 470.183 1213.53 467.661C1206.11 464.021 1192.57 469.689 1185.39 465.794C1173.87 459.548 1165.52 447.402 1148.08 447.48Z" fill="#4AB14A"/>
<path fill-rule="evenodd" clip-rule="evenodd" d="M713.26 459.595C708.15 462.1 703.035 464.608 697.925 467.112C694.118 471.181 690.31 475.253 686.502 479.322C680.782 482.631 668.826 480.071 662.111 482.096C661.493 482.349 660.876 482.601 660.258 482.853C656.844 488.872 653.432 494.896 650.018 500.914C650.018 508.179 650.018 515.444 650.018 522.709C650.018 545.697 652.794 563.917 673.74 566.5C681.369 567.441 688.552 565.604 694.787 564.532C696.799 557.835 688.329 553.186 690.31 544.907C693.413 531.939 705.248 526.061 710.738 515.091C714.907 514.813 717.541 516.405 721.545 516.1C722.507 513.787 724.889 509.978 723.552 506.514C720.948 505.53 711.258 502.13 710.224 500.46C709.779 498.828 709.331 497.199 708.886 495.567C703.112 480.3 719.044 475.959 715.884 459.595C715.009 459.595 714.135 459.595 713.26 459.595Z" fill="#4AB14A"/>
<path fill-rule="evenodd" clip-rule="evenodd" d="M1134.19 515.588C1131.91 517.031 1128.72 517.624 1125.64 518.212C1113.41 520.558 1098.42 517.811 1086.74 516.395C1082.71 516.211 1078.68 516.025 1074.65 515.84C1071.85 516.093 1069.06 516.345 1066.26 516.597C1056.84 519.624 1047.43 522.651 1038.01 525.678C1038.22 536.449 1040.13 546.05 1042.64 554.435C1058.14 554.46 1071.06 559.664 1080.26 566.19C1082.92 568.077 1084.98 570.473 1087.41 572.547C1086.26 578.457 1081.7 580.848 1084.27 588.186C1089.02 589.501 1093.25 589.763 1096.57 592.273C1101.44 595.953 1103.05 602.398 1110 604.129C1122.24 607.176 1154.71 596.17 1158.37 590.356C1161.03 582.823 1163.69 575.286 1166.35 567.754C1167.7 566.099 1170.07 565.05 1172.01 563.97C1177.29 561.019 1183.24 558.653 1188.27 555.444C1187.07 550.568 1185.87 545.689 1184.67 540.813C1173.91 539.136 1169.73 529.684 1161.3 525.527C1157.79 523.794 1151.54 525.381 1147.77 523.257C1145.08 521.741 1141.27 516.226 1139.38 515.588C1137.65 515.588 1135.92 515.588 1134.19 515.588Z" fill="#4AB14A"/>
<path fill-rule="evenodd" clip-rule="evenodd" d="M1240.76 521.638C1236.99 524.761 1231.67 526.728 1226.91 528.802C1219.88 531.861 1212.85 534.924 1205.82 537.984C1202.75 539.338 1198.09 540.948 1196.19 543.483C1194.02 546.384 1199.61 556.337 1196.71 560.737C1188.75 565.361 1180.79 569.987 1172.83 574.611C1170.45 581.825 1168.06 589.039 1165.68 596.254C1161.29 598.373 1156.89 600.492 1152.51 602.611C1145.4 606.059 1138.3 609.505 1131.2 612.953C1123.12 612.953 1115.04 612.953 1106.96 612.953C1102.69 629.4 1116.78 637.315 1114.84 653.616C1114.61 655.382 1114.39 657.148 1114.17 658.913C1112.32 662.273 1103.6 665.114 1099.76 666.935C1100.49 672.542 1104.02 675.032 1105.42 679.497C1106.3 685.062 1107.17 690.631 1108.05 696.196C1118 696.025 1122.85 690.652 1129.35 687.065C1132.96 685.069 1137.58 684.456 1142.63 683.785C1170.08 680.133 1193.14 690.652 1214 695.338C1221.5 697.024 1231.4 695.298 1239.57 696.499C1245.55 697.377 1249.59 700.056 1254.7 701.746C1259.61 696.943 1265.87 694.781 1270.96 700.585C1272.04 701.814 1273.12 703.04 1274.2 704.268C1276.76 704.286 1279.32 704.301 1281.87 704.319C1287.44 704.319 1293.02 704.319 1298.59 704.319C1302.07 703.971 1305.71 704.505 1308.68 703.764C1308.55 685.97 1315.36 681.626 1330.45 678.74C1334.17 678.153 1337.89 677.562 1341.61 676.975C1346.12 663.002 1329.89 654.181 1331.32 641.811C1331.48 640.784 1331.63 639.76 1331.78 638.733C1332.64 638.246 1333.5 637.757 1334.36 637.27C1336.68 635.921 1338.29 634.932 1341.82 634.546C1350.29 633.615 1362.93 639.283 1367.14 632.376C1367.55 631.317 1367.96 630.257 1368.37 629.198C1367.81 628.492 1367.24 627.785 1366.67 627.079C1362.62 622.448 1354.99 620.818 1348.87 618.25C1347.29 617.476 1345.71 616.704 1344.13 615.93C1343.64 614.517 1343.14 613.104 1342.64 611.692C1341.4 608.972 1339.64 606.5 1337.86 604.275C1330.08 594.589 1317.94 588.023 1314.7 574.056C1313.71 569.803 1317.11 565.948 1318.1 561.897C1319.35 556.759 1318.57 550.483 1317.43 545.854C1309.33 543.097 1301.23 540.337 1293.14 537.58C1286.13 536.619 1281.89 542.554 1275.03 539.951C1271.49 538.612 1271.55 533.024 1268.59 530.921C1261.47 525.848 1250.77 523.726 1240.76 521.638Z" fill="#4AB14A"/>
<path fill-rule="evenodd" clip-rule="evenodd" d="M767.291 524.669C756.33 528.536 745.37 532.406 734.409 536.273C734.265 550.419 745.287 557.071 754.169 562.558C756.827 564.222 759.487 565.887 762.145 567.552C764.494 566.594 779.417 543.697 778.663 540.258C776.605 535.398 774.546 530.537 772.488 525.678C770.756 525.343 769.022 525.005 767.291 524.669Z" fill="#4AB14A"/>
<path fill-rule="evenodd" clip-rule="evenodd" d="M203.826 561.504C199.687 563.447 191.579 561.832 187.411 563.522C188.9 569.652 192.507 578.007 191.065 585.216C190.562 587.731 186.524 597.682 187.874 599.292C192.27 600.119 196.71 599.559 200.688 600.452C207.964 602.087 213.876 604.826 221.374 606.405C225.508 600.296 230.332 595.006 233.209 587.587C233.551 586.445 233.896 585.299 234.238 584.157C234.037 582.391 228.346 579.056 226.88 577.85C220.079 572.255 214.157 563.338 203.826 561.504Z" fill="#4AB14A"/>
<path fill-rule="evenodd" clip-rule="evenodd" d="M1037.45 561.504C1034.46 562.344 1031.48 563.187 1028.49 564.027C1016.77 567.258 992.332 570.742 995.301 586.225C1008.87 586.144 1021.37 587.781 1034.05 589.252C1047.21 590.778 1062.63 590.097 1074.55 588.243C1074.65 585.839 1074.75 583.433 1074.86 581.029C1075.27 578.726 1075.68 576.42 1076.09 574.117C1074.2 569.271 1045.4 562.826 1037.45 561.504Z" fill="#4AB14A"/>
<path fill-rule="evenodd" clip-rule="evenodd" d="M178.149 567.556C165.457 577.931 152.761 588.309 140.07 598.684C136.733 600.977 124.724 608.199 124.118 611.902C128.749 624.916 133.381 637.935 138.012 650.951C137.764 653.796 135.689 656.546 134.409 658.619C130.156 665.092 125.901 671.57 121.648 678.043C121.061 679.059 117.062 686.864 118.972 688.637C121.099 689.192 123.226 689.747 125.353 690.302C138.439 693.365 152.653 692.522 163.895 688.385C171.113 685.729 177.352 682.26 184.169 679.455C191.284 676.527 198.987 675.278 204.341 670.778C210.282 665.783 212.664 656.326 216.742 649.538C218.757 646.183 222.251 644.044 223.895 640.407C226.828 633.911 222.801 622.938 221.116 617.603C220.704 616.259 220.293 614.912 219.881 613.567C218.824 611.885 201.346 605.836 197.394 605.394C192.186 604.811 184.274 607.062 180.722 604.335C180.679 593.248 191.615 572.374 178.149 567.556Z" fill="#4AB14A"/>
<path fill-rule="evenodd" clip-rule="evenodd" d="M694.735 571.084C686.497 577.067 674.767 571.2 663.912 572.093C663.215 577.705 662.077 585.442 664.169 590.507C665.903 594.705 669.294 597.669 669.984 602.868C671.034 610.786 653.607 625.235 646.416 626.075C640.432 620.119 631.156 616.651 620.945 621.131C619.486 621.938 618.029 622.745 616.571 623.552C614.322 627.033 618.657 634.334 619.401 636.922C619.977 638.925 620.155 641.77 619.864 644.237C618.073 659.397 613.735 672 608.389 683.639C607.128 686.383 605.505 689.826 603.089 691.459C599.723 693.734 592.522 692.425 588.783 694.183C589.985 706.223 591.184 718.265 592.385 730.305C591.529 738.796 590.669 747.292 589.812 755.783C591.544 758.825 593.278 761.87 595.01 764.914C596.772 770.736 592.565 777.474 596.193 781.765C600.935 787.375 625.249 790.891 634.735 793.116C637.619 793.792 647.8 795.659 648.526 797.657C649.596 800.6 644.072 809.467 642.866 811.581C637.993 820.117 630.917 832.701 632.523 846.039C636.055 847.042 640.01 848.843 644.77 847.754C652.051 846.088 655.128 839.163 664.118 840.54C673.54 841.982 679.375 847.39 687.84 849.52C692.42 849.368 696.999 849.217 701.579 849.066C705.57 849.9 706.869 854.245 711.202 854.868C716.257 855.593 715.944 849.778 719.898 849.066C728.543 849.402 737.188 849.738 745.833 850.075C753.101 848.99 758.09 845.034 765.696 843.92C772.29 842.953 777.966 845.493 782.78 847.098C784.511 847.569 786.245 848.04 787.977 848.511C789.76 846.403 784.576 831.476 785.867 826.111C787.781 818.15 800.708 816.861 803.723 806.637C803.947 805.459 804.168 804.283 804.392 803.105C803.075 798.325 789.639 788.051 785.044 785.498C781.879 783.74 777.863 782.908 775.627 780.251C772.455 776.485 773.939 768.007 771.922 763.098C770.641 759.978 766.285 754.678 766.879 750.637C772.691 746.979 780.173 744.941 786.382 741.505C791.62 738.607 795.204 733.539 800.224 730.507C806.862 728.017 813.5 725.53 820.138 723.041C822.59 720.99 825.045 718.936 827.497 716.886C832.55 713.679 840.454 722.122 844.581 716.633C847.707 712.474 838.792 701.16 837.531 697.916C834.958 691.295 838.817 682.829 837.016 675.668C836.01 671.672 832.851 662.336 830.687 659.322C828.377 656.105 824.988 653.84 823.02 650.291C818.345 641.861 829.802 639.363 827.805 629.354C824.6 613.293 795.243 593.522 777.222 591.314C775.094 591.055 769.882 594.894 768.063 595.905C762.909 598.769 737.227 612.123 729.315 606.45C727.136 604.888 728.522 594.934 726.227 592.828C723.997 592.291 721.769 591.751 719.538 591.214C713.569 589.554 702.3 586.388 698.543 582.839C698.422 581.898 698.304 580.954 698.183 580.014C697.735 576.495 697.3 572.517 694.735 571.084Z" fill="#4AB14A"/>
<path fill-rule="evenodd" clip-rule="evenodd" d="M925.267 576.134C919.476 581.88 905.443 582.849 896.862 586.022C889.849 588.847 882.83 591.672 875.816 594.498C859.357 600.799 841.53 606.674 830.122 618.007C831.48 623.628 836.212 627.934 835.319 635.06C834.75 639.603 828.547 644.966 829.71 648.379C836.932 653.434 843.609 668.203 845.044 678.901C844.53 684.181 844.015 689.463 843.501 694.743C844.17 696.44 844.839 698.14 845.507 699.838C847.679 704.679 850.108 710.17 853.226 714.317C856.28 716.974 859.332 719.632 862.386 722.288C864.22 723.885 866.057 725.485 867.892 727.081C873.632 729.584 882.737 728.592 888.063 731.521C889.162 732.346 890.258 733.168 891.356 733.993C891.254 734.952 891.151 735.91 891.048 736.869C890.43 741.545 891.887 743.563 895.164 744.941C896.765 745.612 898.509 746.321 900.619 745.647C902.862 736.311 920.407 739.116 927.12 742.822C932.098 745.569 929.891 752.945 932.935 754.678C934.357 754.862 935.783 755.048 937.205 755.233C941.621 755.896 951.346 756.032 954.341 758.108C960.174 762.149 960.374 772.212 966.434 775.917C971.659 779.113 974.237 772.512 978.732 773.344C984.362 774.389 990.274 781.669 994.272 784.998C999.573 782.811 1004.87 780.627 1010.17 778.44C1016.23 779.449 1022.28 780.458 1028.34 781.467C1034.51 780.897 1038.79 776.2 1046.5 777.078C1049.52 777.421 1051.91 778.208 1054.07 779.398C1057.26 781.162 1068.23 790.139 1071.97 787.016C1071.21 785.541 1069.23 782.365 1069.92 779.903C1070.72 777.03 1076.11 770.95 1078.05 768.4C1082.56 762.455 1087.28 756.771 1092.09 751.146C1093.79 749.166 1095.74 746.495 1098.06 745.193C1102.57 743.662 1107.09 742.133 1111.6 740.602C1112.28 737.895 1112.97 735.186 1113.65 732.479C1112.11 729.874 1110.57 727.265 1109.02 724.66C1105.51 718.515 1102.42 711.712 1100.28 704.379C1098.73 699.086 1099.22 692.023 1098.53 686.166C1098.42 684.62 1098.32 683.071 1098.22 681.525C1096.66 675.614 1090.94 672.602 1090.5 665.229C1090.27 661.468 1101.91 658.027 1104.6 655.896C1112.05 649.978 1104.97 637.85 1101.97 632.789C1095.51 621.877 1101.76 603.286 1088.54 598.433C1080.06 595.315 1065.67 594.742 1054.53 596.062C1048.61 596.763 1043.28 597.626 1036.57 597.626C1017.53 597.626 1001.89 593.895 985.164 591.824C975.212 590.59 963.413 592.929 956.193 589.251C955.838 586.759 955.687 583.979 954.392 582.389C950.862 578.058 934.038 576.103 925.267 576.134Z" fill="#4AB14A"/>
<path fill-rule="evenodd" clip-rule="evenodd" d="M585.13 628.597C575.61 632.616 566.09 636.637 556.571 640.655C553.944 641.76 549.771 642.698 548.029 644.742C543.632 649.9 542.592 658.535 539.641 665.073C534.377 676.54 529.108 688.013 523.843 699.48C522.243 702.111 518.978 703.221 517.257 705.787C518.569 708.846 524.384 708.95 528.269 708.057C535.329 706.437 546.112 699.127 554.204 701.044C567.369 704.162 568.437 720.417 583.638 721.931C583.671 715.925 579.598 690.778 582.3 688.482C586.257 685.122 593.608 687.592 599.641 686.06C600.909 683.001 602.18 679.938 603.449 676.878C606.945 667.813 609.794 658.245 611.579 647.617C612.557 641.798 612.853 633.146 609.161 630.161C607.748 629.019 588.776 628.678 585.13 628.597Z" fill="#4AB14A"/>
<path fill-rule="evenodd" clip-rule="evenodd" d="M1398.68 676.518C1394.31 678.973 1382.82 679.73 1375.78 678.99C1373.31 678.839 1370.84 678.688 1368.37 678.536C1366.33 679.369 1364.49 685.304 1360.86 686.205C1350.59 688.753 1338.49 683.73 1328.28 686.457C1321.76 688.2 1318.28 692.123 1317.17 699.221C1316.67 702.407 1316.72 712.232 1314.8 713.398C1308.11 717.469 1302.44 710.151 1294.12 710.774C1287.34 711.281 1281.16 715.696 1273.74 713.398C1270.3 712.331 1266.64 706.675 1264.94 706.284C1262.81 705.797 1258.35 709.848 1255.11 710.219C1248.19 711.009 1245.37 705.616 1239.83 704.771C1232.54 704.602 1225.25 704.435 1217.96 704.266C1207.86 702.687 1198.33 699.183 1188.73 696.547C1179.55 694.025 1170.38 693.313 1159.3 692.158C1153.34 691.538 1146.44 692.161 1141.49 693.268C1134.44 694.847 1129.19 698.076 1123.59 701.088C1121.3 701.996 1119.02 702.904 1116.74 703.812C1115.24 704.266 1113.19 704.392 1112.11 705.275C1113.53 715.093 1119.95 721.664 1122.76 730.702C1123.55 733.235 1124.34 736.827 1123.59 739.985C1121.49 748.799 1112.6 751.039 1104.55 754.111C1102.96 754.717 1100.16 755.453 1099.25 756.735C1098.73 758.432 1098.22 760.132 1097.7 761.83C1093.19 766.656 1088.68 771.484 1084.17 776.309C1082.98 777.669 1080.88 778.933 1080.41 780.9C1078.82 787.64 1088.34 792.547 1085.87 797.65C1084.35 800.775 1078.67 802.241 1075.21 803.502C1074.15 803.873 1073.09 804.241 1072.02 804.612C1070.63 809.168 1069.25 813.726 1067.86 818.284C1073.77 821.591 1078.8 826.588 1083.81 830.897C1086.19 829.888 1088.58 828.878 1090.96 827.87C1104.03 829.047 1117.1 830.224 1130.17 831.401C1133.26 832.379 1141.77 840.275 1145.09 839.473C1146.54 838.717 1147.98 837.96 1149.42 837.203C1152.95 835.71 1156.89 834.571 1160.94 833.621C1164.13 833.352 1167.32 833.083 1170.51 832.814C1174.38 830.903 1175.19 825.783 1179.31 824.086C1182.63 822.721 1188.54 824.321 1191.92 822.825C1196 820.471 1200.09 818.115 1204.17 815.762C1206.38 815.661 1208.59 815.56 1210.81 815.459C1215.16 814.995 1219.75 814.039 1224.24 814.803C1232.06 816.132 1235.08 822.424 1242.25 824.338C1248.06 825.33 1253.88 826.323 1259.69 827.315C1263.84 830.678 1267.99 834.042 1272.14 837.405C1274.05 840.17 1272.43 847.606 1273.22 851.632C1277.09 852.941 1281.5 855.743 1282.59 859.805C1283.56 863.418 1283.53 867.095 1284.85 870.046C1286.25 873.148 1289.06 873.522 1291.75 875.293C1295.94 878.049 1297.74 884.521 1298.54 890.58C1298.74 892.062 1299.19 895.792 1298.39 896.987C1297.34 897.609 1296.3 898.231 1295.25 898.853C1294.03 899.593 1292.81 900.333 1291.6 901.073C1285.89 902.87 1278.71 899.381 1272.45 900.266C1270.57 900.533 1269.09 901.118 1267.92 902.082C1264.9 904.592 1252.17 923.433 1254.65 928.266C1258.84 928.317 1260.38 926.938 1263.24 925.844C1266.5 924.597 1270.24 923.734 1274.72 923.725C1275.89 926.123 1278.41 929.007 1282.49 928.216C1287.77 921.506 1293.05 914.795 1298.34 908.086C1299.91 907.228 1301.49 906.37 1303.07 905.513C1304.86 903.568 1305.35 899.862 1306.16 897.037C1308.71 888.112 1314.12 884.495 1322.98 881.852C1327.12 880.617 1344.23 877.765 1348.87 880.439C1349.36 884.238 1350.08 890.195 1352.57 892.194C1355.13 894.244 1360.78 894.567 1364.46 895.271C1379.2 898.096 1397.62 898.833 1403.98 909.902C1409.19 918.973 1391.73 924.83 1384.58 927.005C1382.61 927.593 1380.64 928.182 1378.66 928.771C1378.83 929.611 1379 930.452 1379.18 931.293C1387.26 934.353 1395.33 937.415 1403.41 940.475C1403.67 943.625 1403.74 946.997 1402.95 949.758C1402.23 952.291 1400.57 955.698 1400.84 958.586C1421.2 966.504 1435.65 944.596 1453.07 941.332C1459.12 940.2 1479.79 940.134 1477.98 934.32C1471.07 934.488 1464.15 934.656 1457.24 934.825C1446.6 933.204 1440.38 925.801 1438.04 915.906C1436.55 909.571 1436.08 898.398 1440.26 894.868C1450.09 886.558 1463.37 882.548 1478.75 879.531C1483.48 879.464 1488.22 879.396 1492.95 879.329C1498.92 875.462 1504.89 871.593 1510.86 867.726C1518.59 866.532 1526.33 865.337 1534.07 864.144C1534.06 860.093 1533.66 854.714 1534.99 851.682C1536.37 848.539 1541.04 846.666 1543.69 844.67C1546.34 842.666 1548.51 840.132 1551.51 838.464C1553.15 837.552 1555.35 837.115 1557.53 836.749C1563.68 835.716 1576.9 836.832 1580.33 833.47C1580.51 832.646 1580.7 831.821 1580.89 830.998C1582.68 820.986 1575.83 815.535 1576.88 806.529C1577.67 799.696 1581.93 795.135 1585.42 790.789C1586.48 789.527 1587.55 788.266 1588.61 787.005C1589.55 784.263 1587.84 780.446 1587.07 778.933C1573.95 779.074 1565.94 771.799 1554.75 769.852C1547.8 768.641 1533.95 770.197 1528.97 767.43C1524.54 764.966 1520.86 761.227 1517.65 757.542C1515.92 755.758 1514.18 753.977 1512.45 752.194C1504.68 753.708 1496.91 755.221 1489.14 756.735C1485.4 755.557 1481.66 754.381 1477.92 753.203C1471.21 750.759 1464.59 748.491 1458.27 745.787C1455.49 744.596 1452.39 743.501 1450.19 741.7C1447.19 739.248 1447.46 732.967 1446.28 728.735C1445.37 725.491 1443.69 723.026 1441.29 721.268C1434.8 716.536 1419.45 720.481 1415.25 713.499C1412.4 708.754 1414.72 701.181 1416.38 697.001C1416.74 696.091 1418.22 693.957 1417.77 692.663C1413.14 687.282 1408.51 681.899 1403.88 676.518C1402.14 676.518 1400.41 676.518 1398.68 676.518Z" fill="#4AB14A"/>
<path fill-rule="evenodd" clip-rule="evenodd" d="M551.168 708.316C543.176 710.856 535.18 713.394 527.188 715.934C513.341 717.642 499.697 709.951 488.698 717.599C487.753 718.373 486.812 719.145 485.867 719.92C486.228 721.955 486.588 723.989 486.948 726.024C490.656 726.965 497.582 726.415 500.739 728.194C506.147 731.241 508.643 737.348 512.471 741.967C519.228 747.92 525.989 753.873 532.746 759.826C538.038 763.093 543.639 757.102 549.624 758.262C553.321 758.978 561.572 765.696 564.855 767.949C566.811 769.26 568.766 770.572 570.722 771.884C574.102 770.776 573.698 759.675 575.404 756.194C576.994 752.947 581.97 754.97 583.74 748.878C585.078 744.277 585.565 735.935 583.689 731.523C583.097 730.133 576.348 727.275 574.735 726.075C567.168 720.439 561.567 710.861 551.168 708.316Z" fill="#4AB14A"/>
<path fill-rule="evenodd" clip-rule="evenodd" d="M475.524 721.931C472.113 723.979 458.569 726.004 457.051 728.489C456.827 729.935 456.606 731.382 456.382 732.828C455.489 736.377 454.599 739.924 453.706 743.473C449.384 755.992 441.608 762.742 429.572 767.689C420.688 771.339 411.192 774.099 402.557 777.88C394.766 781.29 388.159 786.671 378.578 788.273C370.653 789.597 359.042 775.014 354.65 778.485C356.88 789.416 359.109 800.348 361.339 811.278C359.335 817.214 347.031 813.723 342.403 812.388C325.617 807.547 301.867 804.276 283.278 809.916C280.501 810.759 276.984 811.647 274.89 813.296C275.404 820.511 275.919 827.726 276.434 834.939C291.714 839.984 307.002 845.03 322.283 850.075C325.895 851.916 328.995 854.979 332.008 857.491C343.517 867.087 351.616 879.719 360.876 891.545C365.317 896.875 369.76 902.207 374.204 907.538C373.723 914.095 373.244 920.655 372.763 927.213C371.855 939.791 370.944 952.372 370.036 964.95C369.47 969.906 370.079 975.835 368.698 980.287C366.969 985.855 354.13 998.05 355.164 1002.43C356.554 1004.03 357.943 1005.63 359.332 1007.23C360.722 1008.86 362.111 1010.49 363.5 1012.12C367.118 1014.74 372.994 1016.07 377.6 1017.47C385.851 1019.98 394.259 1022.45 403.072 1024.53C407.44 1025.56 412.038 1026.92 417.017 1027.16C418.91 1027.24 423.14 1021.82 425.096 1021.1C428.649 1019.8 435.513 1025.34 439.247 1025.74C443.34 1026.18 444.935 1022.26 448.046 1021.3C456.307 1018.75 461.271 1024.53 463.432 1029.98C463.895 1031.73 464.358 1033.48 464.821 1035.23C468.14 1035.26 470.363 1034.6 473.312 1034.22C480.011 1033.35 487.051 1033.58 492.042 1031.19C492.457 1024.3 493.252 1015.82 496.776 1011.77C498.194 1010.13 510.408 1007.38 513.5 1006.47C521.852 1004.07 530.209 1001.66 538.56 999.257C542.553 998.664 547.154 999.331 550.756 999.811C557.736 1000.77 564.719 1001.73 571.699 1002.69C577.805 1003.86 583.913 1005.04 590.018 1006.22C592.529 1006.91 594.727 1008.8 598.149 1008.34C601.429 1007.89 611.396 999.112 614.512 996.885C610.578 986.833 616.846 984.243 620.687 978.673C620.515 978.185 620.345 977.697 620.173 977.21C609.114 974.433 605.638 961.565 604.066 949.361C603.945 946.855 603.827 944.349 603.706 941.844C606.279 938.968 608.852 936.092 611.425 933.217C611.854 929.376 605.947 924.418 604.632 921.159C603.372 918.037 606.462 913.201 605.764 910.565C603.004 906.378 600.24 902.189 597.48 898.003C592.553 899.352 587.098 902.736 582.094 899.516C582.094 893.446 582.094 887.374 582.094 881.303C588.644 875.233 595.2 869.161 601.751 863.091C604.133 859.977 602.239 852.607 605.713 850.579C611.677 847.097 616.136 856.344 621.665 849.974C627.806 842.9 624.464 830.661 628.406 821.923C631.313 815.481 640.807 808.857 639.212 799.624C627.531 797.942 615.85 796.262 604.169 794.579C599.059 791.217 593.944 787.852 588.835 784.489C584.952 782.691 579.397 785.549 575.867 783.48C566.983 777.426 558.096 771.372 549.212 765.318C543.999 762.349 536.085 770.025 531.099 766.831C524.409 761.131 517.72 755.43 511.03 749.729C510.361 750.554 509.692 751.376 509.023 752.201C508.149 751.679 507.274 751.159 506.399 750.637C505.1 748.705 504.606 746.23 503.466 744.331C501.029 740.9 498.595 737.469 496.159 734.039C482.35 734.763 481.329 732.245 478.2 722.031C477.307 721.999 476.417 721.963 475.524 721.931Z" fill="#045277"/>
<path fill-rule="evenodd" clip-rule="evenodd" d="M849.16 724.453C845.172 727.768 835.727 726.973 830.172 725.462C828.811 727.026 827.944 728.593 826.21 729.801C820.936 733.481 812.232 734.003 806.039 736.713C795.765 741.205 790.401 750.422 777.634 752.705C777.567 759.047 779.453 763.484 780.824 768.648C781.287 770.532 781.751 772.414 782.214 774.298C786.827 777.156 791.443 780.017 796.056 782.875C797.816 784.295 798.606 787.673 800.636 789.383C808.087 795.661 816.168 800.653 825.13 805.577C826.81 806.453 828.492 807.326 830.172 808.201C831.15 807.729 832.128 807.26 833.106 806.788C840.515 802.349 842.098 796.138 852.299 793.318C854.131 792.811 856.46 792.097 858.886 792.359C865.383 793.063 869.075 796.115 873.243 799.069C874.804 800.096 876.364 801.12 877.925 802.147C884.648 802.316 891.374 802.482 898.097 802.651C900.842 803.829 903.585 805.005 906.33 806.183C907.11 806.165 910.771 802.328 912.917 801.541C920.877 798.618 930.801 799.112 936.845 794.529C937.635 793.722 938.422 792.914 939.212 792.107C939.914 789.552 940.619 786.994 941.322 784.439C942.711 783.901 944.1 783.362 945.49 782.824C949.03 780.874 953.111 777.827 955.112 774.399C952.9 771.708 950.687 769.019 948.474 766.327C945.765 766.193 943.053 766.057 940.344 765.923C928.627 764.614 924.963 762.881 923.26 751.747C918.611 751.091 913.961 750.435 909.315 749.779C906.431 759.736 897.621 757.766 889.864 753.513C886.491 751.664 882.701 749.267 881.219 745.592C880.161 742.968 880.943 739.969 878.903 738.377C877.977 737.653 874.197 738.4 872.522 738.176C870.492 737.903 868.609 737.449 866.965 736.763C859.835 733.784 856.498 727.114 849.16 724.453Z" fill="#4AB14A"/>
<path fill-rule="evenodd" clip-rule="evenodd" d="M582.094 760.273C580.005 763.053 575.582 778.871 583.071 778.94C584.173 778.95 585.469 777.787 586.005 777.123C589.928 772.268 587.469 764.385 584.667 760.273C583.81 760.273 582.951 760.273 582.094 760.273Z" fill="#4AB14A"/>
<path fill-rule="evenodd" clip-rule="evenodd" d="M975.181 783.48C971.038 786.038 962.033 783.031 957.942 785.347C948.922 790.452 946.488 802.997 936.742 807.343C932.458 809.253 915.986 810.673 913.997 813.246C911.705 816.21 912.502 827.56 915.026 829.39C916.382 830.046 917.736 830.702 919.092 831.358C921.322 833.056 923.551 834.755 925.781 836.453C931.583 839.764 941.257 839.418 948.783 837.866C951.253 837.395 953.723 836.924 956.193 836.453C956.895 835.192 957.6 833.93 958.303 832.669C960.752 829.449 964.593 827.454 969.057 826.212C979.009 823.442 992.604 824.632 1001.42 820.864C1008.3 817.928 1009.76 809.621 1018.1 807.898C1027.4 805.976 1038.8 813.892 1045.58 816.475C1046.49 816.825 1055.02 819.504 1056.54 818.291C1057.55 815.062 1058.56 811.833 1059.57 808.605C1061.13 804.715 1063.28 801.683 1065.95 798.918C1066.41 798.444 1066.32 797.546 1066.31 796.597C1060.58 792.889 1052.07 784.921 1042.02 786.255C1036.67 786.966 1033.38 789.519 1027.56 790.089C1022.73 790.563 1017.79 789.237 1013.31 788.576C1011.9 788.392 1010.5 788.205 1009.09 788.021C1004.2 788.503 998.651 795.752 993.706 794.579C992.368 793.654 991.03 792.73 989.692 791.805C985.49 788.457 982.123 784.111 975.181 783.48Z" fill="#4AB14A"/>
<path fill-rule="evenodd" clip-rule="evenodd" d="M855.284 801.648C851.2 804.804 846.453 806.996 842.471 810.124C839.401 812.848 836.329 815.572 833.26 818.297C832.3 818.196 831.338 818.095 830.378 817.994C824.563 816.876 820.84 813.857 816.381 811.385C814.966 810.6 812.841 809.334 811.03 809.266C805.65 815.585 800.795 823.387 793.071 827.378C793.562 835.415 799.441 851.183 792.814 856.538C786.914 861.303 777.17 849.139 768.114 850.232C759.438 851.278 753.33 856.052 744.443 857.143C738.955 857.817 733.202 856.964 728.388 856.235C726.793 856.033 725.198 855.832 723.603 855.63C721.243 856.361 717.549 865.527 712.745 864.206C708.456 861.516 704.167 858.825 699.881 856.134C699.384 856.302 698.885 856.471 698.388 856.639C698.347 861.565 701.172 868.674 703.02 872.279C710.561 872.231 717.055 874.764 723.911 876.062C726.006 876.458 728.97 877.063 731.476 876.567C733.737 876.119 734.833 873.044 736.416 871.774C740.35 868.616 760.344 864.529 768.114 866.325C771.757 867.168 773.342 876.174 776.141 878.383C778.542 880.278 789.86 882.04 793.791 882.923C804.672 885.368 815.808 887.182 827.548 888.877C830.723 889.335 835.722 890.436 839.229 889.482C841.938 888.002 844.65 886.522 847.359 885.042C849.314 883.983 851.27 882.923 853.225 881.864C859.297 881.511 865.369 881.158 871.441 880.804C874.305 880.653 877.171 880.502 880.035 880.351C880.876 879.157 881.715 877.962 882.556 876.769C885.664 872.194 895.848 855.675 888.268 849.122C889.714 842.593 896.44 842.774 903.705 842.008C906.193 834.693 905.717 823.266 902.985 816.531C902.504 815.59 902.025 814.646 901.544 813.706C895.745 810.406 884.059 813.706 877.822 811.385C870.091 808.507 865.619 801.865 855.284 801.648Z" fill="#4AB14A"/>
<path fill-rule="evenodd" clip-rule="evenodd" d="M1018.41 816.277C1016.79 817.506 1015.18 818.731 1013.57 819.96C1008.66 823.952 1004.48 828.193 997.514 830.252C989.029 832.761 976.921 831.767 968.903 834.691C963.163 836.785 965.142 840.191 961.596 842.764C957.879 845.462 942.318 848.39 934.993 847.556C925.213 846.443 921.879 839.76 912.454 838.475C910.72 842.766 909.608 846.996 905.147 848.666C903.277 849.171 901.409 849.675 899.538 850.18C897.549 856.435 895.558 862.692 893.569 868.947C893.111 870.531 891.917 873.069 892.334 875.102C893.569 877.07 894.804 879.037 896.039 881.005C897.891 883.964 899.744 886.925 901.596 889.884C904.169 891.599 906.742 893.315 909.315 895.03C917.595 900.176 925.933 905.362 935.301 909.459C939.771 911.414 947.222 915.321 953.878 914.403C957.773 913.866 961.136 912.036 964.066 910.418C970.897 906.646 977.332 902.019 985.885 900.126C990.619 900.462 995.353 900.798 1000.09 901.134C1009.51 902.163 1020.69 898.37 1026.43 895.131C1036.97 889.195 1045.31 868.227 1051.65 857.192C1053.72 853.581 1055.68 848.864 1058.8 846.245C1062.45 843.185 1076.34 841.122 1075.06 834.389C1074.52 831.506 1065.95 824.755 1061.73 825.156C1058.19 825.494 1055.19 827.152 1051.24 826.266C1039.65 823.673 1032.46 816.244 1018.41 816.277Z" fill="#4AB14A"/>
<path fill-rule="evenodd" clip-rule="evenodd" d="M1217.5 822.837C1213.39 824.407 1207.29 824.05 1203.76 826.368C1207.86 830.723 1211.96 835.08 1216.06 839.435C1221.56 848.229 1227.07 857.026 1232.57 865.82C1235.84 870.122 1242.16 874.846 1243.69 880.35C1246.22 889.431 1242.47 900.505 1241.48 909.309C1241.01 913.463 1243.16 921.243 1246.42 921.215C1250.48 914.633 1255.5 907.951 1258.51 900.53C1259.21 898.802 1258.92 896.224 1258.71 894.174C1258.38 890.77 1261.84 888.389 1264.48 887.766C1268.79 886.748 1271.15 889.702 1274.25 891.045C1277.84 892.6 1282.69 892.996 1287.07 891.954C1287.24 890.104 1287.41 888.254 1287.58 886.404C1284.49 883.058 1281.41 879.711 1278.32 876.365C1277.29 872.144 1276.26 867.922 1275.23 863.702C1271.61 860.994 1267.99 858.286 1264.37 855.579C1261.7 851.863 1264.98 843.441 1261.96 840.091C1261.1 839.569 1260.24 839.048 1259.38 838.527C1258.09 837.491 1256.91 835.474 1255.22 834.945C1250.53 834.44 1245.85 833.936 1241.17 833.431C1232.61 830.944 1228.76 823.079 1217.5 822.837Z" fill="#4AB14A"/>
<path fill-rule="evenodd" clip-rule="evenodd" d="M1185.7 832.417C1183.17 834.663 1181.36 839.238 1178.03 840.489C1170.28 841.666 1162.52 842.843 1154.77 844.021C1152.29 844.942 1145.53 850.519 1142.42 849.57C1137.99 846.88 1133.57 844.188 1129.14 841.498C1126.52 841.229 1123.89 840.96 1121.27 840.691C1113.74 840.035 1106.21 839.379 1098.68 838.723C1096.11 838.639 1093.53 838.555 1090.96 838.471C1082.01 842.893 1073.05 847.317 1064.1 851.739C1060.11 856.145 1059.34 863.753 1056.28 869.044C1053.7 873.506 1049.42 876.289 1046.55 880.446C1042.1 886.902 1040.31 895.737 1033.89 900.222C1028.06 902.341 1022.23 904.46 1016.4 906.579C1016.48 908.51 1022.65 911.69 1024.01 913.289C1026.3 915.962 1027.42 921.182 1028.75 924.539C1029.19 925.548 1029.64 926.557 1030.09 927.566C1034.9 931.594 1043.9 931.202 1047.22 936.698C1050.69 942.438 1049.63 953.239 1056.18 955.92C1063.64 958.978 1069.88 950.585 1078.1 953.649C1079.33 954.305 1080.57 954.961 1081.8 955.617C1083.33 958.814 1080.98 963.293 1080.67 966.161C1080.3 969.605 1087.33 980.492 1089.47 981.246C1090.88 981.212 1092.28 981.178 1093.69 981.145C1098.19 981.618 1102.44 981.458 1106.5 982.103C1113.14 983.331 1119.78 984.558 1126.42 985.786C1132.68 985.786 1138.94 985.786 1145.2 985.786C1150.23 986.612 1157.42 988.309 1163 986.694C1168.05 985.232 1170.34 980.931 1174.84 978.975C1184.3 974.863 1198.27 971.516 1210.03 970.096C1218.85 969.032 1224.98 975.075 1230 978.521C1233.44 980.879 1237.13 982.86 1241.78 984.02C1243.35 984.272 1244.91 984.525 1246.47 984.777C1250.54 983.595 1250.34 977.769 1251.2 973.476C1252.87 964.615 1254.53 955.75 1256.19 946.889C1258.45 942.821 1267.32 945.205 1270.65 946.435C1273.55 944.249 1276.45 942.062 1279.35 939.876C1279.35 939.372 1279.35 938.867 1279.35 938.363C1277.32 937.059 1274.84 934.503 1272.2 934.125C1266.21 933.269 1263.07 937.486 1258.46 938.464C1249.86 940.286 1240.59 932.268 1237.62 927.617C1230.2 916.027 1238.17 901.326 1235.87 886.802C1234.77 879.919 1231.13 876.06 1227.99 871.213C1222.64 862.936 1216.75 855.067 1210.96 847.199C1208.13 843.355 1204.16 836.612 1200.05 834.283C1196.62 832.336 1191.12 832.403 1185.7 832.417Z" fill="#4AB14A"/>
<path fill-rule="evenodd" clip-rule="evenodd" d="M660.824 848.057C658.784 850.074 656.741 852.093 654.701 854.111C646.949 854.111 639.194 854.111 631.442 854.111C627.462 856.313 623.481 858.517 619.504 860.72C616.828 861.322 613.424 858.668 611.476 860.619C611.149 861.712 610.825 862.805 610.499 863.898C609.601 865.984 608.247 867.697 606.845 869.296C600.832 876.151 590.875 878.656 589.298 889.93C593.654 892.333 594.881 889.165 598.149 888.972C601.069 890.617 603.137 893.383 605.147 895.934C609.835 901.884 614.579 909.474 622.025 912.633C632.952 917.268 641.538 905.932 647.96 901.988C649.143 901.332 650.327 900.676 651.511 900.021C652.506 900.256 653.499 900.491 654.495 900.727C658.308 901.872 662.35 904.436 667.308 903.098C668.216 902.762 669.127 902.425 670.035 902.089C670.481 900.979 670.928 899.869 671.373 898.759C672.889 895.426 675.199 892.143 678.68 890.738C688.185 886.901 699.819 898.739 706.828 889.981C708.493 887.901 709.733 886.222 709.709 882.363C698.111 874.976 681.565 887.643 675.541 872.071C674.713 869.928 673.151 866.974 673.895 863.999C674.878 860.061 680.039 858.698 680.327 854.565C674.034 852.247 668.849 849.171 660.824 848.057Z" fill="#4AB14A"/>
<path fill-rule="evenodd" clip-rule="evenodd" d="M689.023 859.162C687.513 859.499 686.005 859.835 684.495 860.171C683.106 861.886 681.716 863.602 680.327 865.317C678.904 868.881 682.887 874.587 685.01 875.306C688.776 876.584 694.56 873.949 696.33 872.784C696.415 864.282 696.855 860.135 689.023 859.162Z" fill="#4AB14A"/>
<path fill-rule="evenodd" clip-rule="evenodd" d="M761.579 874.285C754.581 875.966 747.583 877.648 740.584 879.33C737.939 880.805 739.393 885.637 735.644 886.393C729.554 887.621 724.715 883.529 718.972 885.384C718.607 896.634 707.198 902.498 694.735 901.175C692.162 901.107 689.589 901.04 687.017 900.973C685.246 900.645 684.045 899.084 681.768 899.459C681.698 899.476 681.632 899.493 681.562 899.51C681.511 899.51 681.459 899.51 681.408 899.51C680.875 900.771 680.345 902.032 679.812 903.294C677.981 907.281 675.122 910.87 670.859 912.475C666.094 914.27 659.692 913.112 655.01 912.072C653.523 911.742 651.168 910.788 649.71 911.315C646.244 912.567 645.235 916.685 642.145 918.479C635.837 922.141 623.119 921.699 615.078 919.69C614.891 920.026 614.7 920.363 614.512 920.699C615.943 923.869 622.388 930.347 621.202 934.876C620.474 937.653 617.114 940.503 615.078 942.191C614.376 942.763 613.671 943.334 612.969 943.906C613.002 944.965 613.038 946.025 613.072 947.085C613.8 953.807 614.883 959.221 617.188 964.238C619.632 969.556 623.775 967.556 628.355 970.292C631.478 972.158 632.561 975.371 634.632 978.263C635.631 979.655 636.933 980.567 638.132 981.744C644.566 978.825 646.357 970.551 652.9 967.668C673.29 958.685 682.095 969.364 696.896 975.74C700.879 977.456 709.123 977.65 712.18 980.13C713.654 981.325 716.834 999.456 717.685 1002.93C718.748 1007.28 720.047 1011.47 721.751 1015.19C724.3 1020.76 729.112 1022.03 733.483 1025.69C735.541 1027.86 737.6 1030.03 739.658 1032.19C745.37 1037.76 751.082 1043.33 756.794 1048.89C764.749 1055.57 772.362 1062.32 781.493 1067.91C783.963 1069.29 786.433 1070.67 788.903 1072.05C794.906 1072.74 800.911 1073.43 806.914 1074.12C809.149 1074.43 811.419 1074.42 813.037 1075.28C818.432 1078.16 820.012 1085.62 824.924 1088.19C831.474 1090.38 838.03 1092.57 844.581 1094.75C848.327 1097.09 848.618 1104.24 851.425 1107.57C855.04 1111.86 862.72 1112.47 867.068 1116.04C869.139 1117.75 870.333 1120.68 871.699 1123.06C875.111 1129.63 878.525 1136.21 881.939 1142.78C883.244 1144.9 884.546 1147.02 885.85 1149.14C886.485 1150 887.118 1150.85 887.754 1151.71C889.776 1157.33 879.59 1171.67 877.977 1176.28C877.54 1177.53 874.943 1185.55 878.028 1185.01C884.208 1176.54 887.579 1164.77 894.392 1156.81C897.32 1153.39 904.802 1154.38 907.514 1150.75C909.24 1148.44 907.979 1143.07 907.308 1140.66C902.723 1139.44 890.124 1131.68 888.783 1128.1C886.789 1122.77 901.722 1102.01 904.684 1100.81C907.771 1100.98 910.859 1101.14 913.946 1101.31C923.17 1102.6 931.925 1104.4 937.668 1109.13C940.624 1111.57 942.392 1115.68 945.953 1117.46C946.449 1117.29 946.949 1117.12 947.445 1116.95C947.448 1110.81 941.077 1106.63 937.462 1103.78C925.035 1094.01 909.66 1086.53 893.62 1080.37C887.396 1077.99 871.789 1072.15 872.368 1064.43C876.137 1063.64 876.369 1061.32 875.919 1057.42C868.545 1057.39 861.166 1057.35 853.792 1057.32C848.811 1055.91 847.187 1051.52 843.552 1048.84C833.731 1041.62 822.119 1035.15 815.816 1024.53C811.655 1017.51 810.22 1008 805.061 1001.97C801.832 998.207 797.052 995.825 792.711 993.146C791.818 992.54 790.928 991.935 790.035 991.33C788.87 991.699 787.702 992.069 786.536 992.44C783.696 993.484 775.872 997.999 773.106 997.485C770.767 997.049 768.966 995.333 767.394 994.054C764.759 991.91 759.968 989.115 760.653 984.065C761.538 977.544 766.818 975.553 767.857 969.686C768.503 966.039 766.272 965.026 765.799 962.674C766.486 956.637 767.17 950.598 767.857 944.562C768.256 940.236 766.758 935.184 767.651 930.739C768.006 928.966 768.678 927.746 769.864 926.804C775.637 922.219 787.128 916.016 795.027 913.838C799.015 912.738 805.841 916.801 808.457 914.695C808.372 912.778 808.285 910.861 808.2 908.944C808.305 904.648 809.283 895.257 806.45 893.456C794.1 890.597 781.751 887.738 769.401 884.879C767.857 881.348 766.313 877.816 764.769 874.285C763.707 874.285 762.642 874.285 761.579 874.285Z" fill="#4AB14A"/>
<path fill-rule="evenodd" clip-rule="evenodd" d="M887.239 882.368C880.101 888.7 867.144 885.633 856.312 888.17C850.475 889.537 844.619 895.317 838.868 896.192C833.475 897.012 821.128 892.608 817.822 895.939C815.885 897.89 817.74 912.333 818.337 914.657C819.978 921.042 823.904 928.98 832.282 923.838C834.309 922.593 836.455 919.641 839.949 920.105C846.234 920.941 848.602 925.644 856.364 924.747C857.815 920.528 859.976 916.991 863.362 914.657C864.991 913.614 866.622 912.571 868.251 911.529C869.434 906.854 870.618 902.178 871.801 897.503C873.191 897.133 874.58 896.763 875.969 896.393C879.667 895.169 890.933 891.039 891.87 887.968C892.755 885.061 889.101 882.949 887.239 882.368Z" fill="#4AB14A"/>
<path fill-rule="evenodd" clip-rule="evenodd" d="M895.421 894.471C889.092 897.329 882.762 900.189 876.433 903.048C875.939 907.603 874.401 916.423 871.339 918.183C869.093 919.023 866.844 919.864 864.598 920.705C862.357 922.298 863.144 928.011 861.356 930.089C856.784 935.396 843.235 928.595 839.332 927.264C833.713 932.635 819.824 928.042 814.735 932.258C812.834 933.832 814.82 939.834 815.507 941.037C816.402 942.603 817.635 943.621 819.315 944.417C822.955 942.024 824.286 936.383 828.526 934.831C833.242 933.105 848.754 939.344 850.19 941.39C850.516 942.97 850.841 944.552 851.167 946.132C851.929 950.013 852.446 954.075 854.152 957.029C855.994 960.22 861.675 963.24 863.054 966.06C863.396 969.625 863.741 973.191 864.083 976.756C865.215 978.286 866.347 979.816 867.479 981.347C873.114 988.369 880.606 995.986 889.761 999.408C895.969 1001.43 902.18 1003.44 908.388 1005.46C912.163 1007.51 921.84 1017.09 925.833 1017.07C922.439 1002.92 908.015 996.909 898.303 988.763C891.788 983.299 888.634 974.07 883.38 967.372C880.069 963.706 876.76 960.039 873.449 956.374C872.556 955.264 871.666 954.154 870.773 953.044C870.06 951.015 871.341 947.609 871.802 946.132C872.646 943.423 876.202 936.234 878.44 935.336C881.659 934.045 887.178 940.253 890.378 939.372C891.477 938.733 892.573 938.094 893.672 937.455C896.304 936.269 899.123 935.339 902.471 934.831C909.814 933.717 916.959 935.673 922.797 937.051C928.503 938.397 934.076 939.548 940.447 940.33C945.335 940.498 950.224 940.667 955.112 940.835C958.187 941.3 960.791 942.18 963.243 943.256C964.305 943.811 965.37 944.366 966.433 944.921C969.564 945.527 974.666 940.177 975.232 937.909C976.3 933.626 965.013 920.867 962.882 917.678C959.044 918.114 956.954 919.985 953.157 920.453C950.525 920.777 948.122 919.829 946.056 919.343C938.358 917.533 930.832 915.526 924.906 911.927C915.353 906.124 908.792 896.345 895.421 894.471Z" fill="#4AB14A"/>
<path fill-rule="evenodd" clip-rule="evenodd" d="M987.531 907.588C984.353 909.429 971.422 912.97 971.167 916.265C973.331 920.318 984.574 933.558 984.495 937.001C984.418 940.256 981.556 942.126 980.378 944.467C981.603 946.85 983.761 948.438 984.135 951.48C984.84 957.227 978.765 959.074 980.584 965.253C980.97 966.569 982.002 967.216 982.797 968.129C985.598 971.352 990.276 974.379 991.133 979.278C992.255 985.695 989.036 991.009 987.531 995.775C987.204 997.154 986.88 998.534 986.553 999.912C987.58 1003.23 1005.39 1013.8 1010.28 1013.99C1011.53 1010.62 1017.81 1002.24 1021.49 1001.93C1022.74 1001.82 1028.47 1006.03 1029.67 1006.82C1036.24 1011.12 1042.6 1015.54 1048.77 1020.19C1050.55 1021.54 1053.24 1023.06 1054.27 1025.09C1055.63 1027.75 1054.62 1032.39 1054.99 1035.73C1059.11 1035.56 1063.23 1035.4 1067.34 1035.23C1066.83 1026.28 1070.05 1021.55 1074.03 1016.96C1076.06 1014.63 1078.76 1012.56 1079.23 1008.74C1079.9 1003.26 1069.1 997.86 1067.39 992.042C1064.78 983.15 1070.39 976.021 1068.89 967.12C1065.76 967.288 1062.64 967.456 1059.52 967.624C1055.92 966.885 1041.16 956.013 1040.07 953.094C1039.38 949.361 1038.7 945.627 1038.01 941.894C1032.32 938.851 1026.62 935.806 1020.93 932.763C1018.52 930.504 1019.08 923.77 1017.43 920.907C1012.61 912.564 1000.73 907.563 987.531 907.588Z" fill="#4AB14A"/>
<path fill-rule="evenodd" clip-rule="evenodd" d="M905.147 940.885C902.592 941.39 900.034 941.894 897.479 942.399C895.318 943.929 893.157 945.459 890.996 946.99C889.012 947.736 883.557 945.886 881.579 945.426C875.43 954.641 888.786 961.793 892.488 967.22C897.091 973.967 900.346 982.556 906.536 987.754C911.7 992.09 919.57 993.933 923.98 999.004C926.937 1002.4 928.763 1006.88 931.596 1010.41C934.696 1014.26 939.832 1015.69 944.358 1018.18C945.369 1018.81 946.382 1019.45 947.394 1020.09C949.681 1020.91 953.484 1019.11 954.135 1018.07C954.461 1016.65 954.786 1015.22 955.112 1013.79C955.959 1010.89 957.081 1008.13 958.509 1005.76C961.354 1001.05 965.705 997.619 971.064 995.372C973.156 994.665 975.25 993.959 977.342 993.253C978.68 989.234 980.018 985.214 981.356 981.195C977.656 978.516 974.615 974.607 971.63 971.206C970.773 970.365 969.914 969.524 969.057 968.683C967.763 965.645 971.311 958.655 972.145 957.029C968.19 953.824 961.436 947.94 955.73 946.939C953.638 947.006 951.544 947.074 949.452 947.141C944.185 947.723 937.496 947.886 932.78 946.99C923.345 945.197 916.177 940.862 905.147 940.885Z" fill="#4AB14A"/>
<path fill-rule="evenodd" clip-rule="evenodd" d="M773.466 975.192C771.94 976.032 770.412 976.873 768.886 977.714C768.508 979.076 768.132 980.438 767.754 981.801C766.377 989.2 772.133 993.479 778.972 990.831C779.898 990.495 780.824 990.159 781.75 989.822C782.733 989.021 783.222 986.511 783.551 985.13C785.553 976.749 780.454 975.902 773.466 975.192Z" fill="#4AB14A"/>
<path fill-rule="evenodd" clip-rule="evenodd" d="M1210.29 979.732C1201.61 981.851 1192.93 983.97 1184.25 986.089C1177.46 988.677 1173.31 994.175 1165.78 995.876C1146.35 1000.27 1123.17 994.499 1106.91 990.831C1104.29 990.377 1101.66 989.923 1099.04 989.469C1095.02 989.01 1085.5 991.53 1082.78 989.822C1080.72 986.963 1078.66 984.104 1076.6 981.246C1076.26 981.414 1075.92 981.582 1075.58 981.75C1075.47 991.78 1081.06 997.661 1086.38 1002.49C1087.75 1003.8 1089.13 1005.11 1090.5 1006.42C1090.43 1007.14 1090.36 1007.87 1090.29 1008.59C1088.95 1016.51 1082.57 1018.24 1078.77 1023.57C1077.37 1025.54 1076.75 1027.9 1076.4 1030.94C1075.1 1042.27 1086.1 1042.9 1088.95 1050.26C1090.98 1055.48 1088.91 1064.5 1091.01 1069.53C1101.19 1071.52 1108.66 1069.55 1116.12 1066.25C1120.02 1064.53 1124.58 1061.23 1130.33 1061.76C1144.69 1063.09 1152 1076.96 1168.61 1072.01C1171.12 1071.26 1174.02 1070.43 1175.92 1068.98C1175.43 1064.34 1174.83 1056.71 1177.41 1053.94C1179.81 1052.99 1182.21 1052.03 1184.61 1051.07C1190.22 1048.83 1195.83 1046.6 1201.44 1044.36C1203.84 1043.38 1206.23 1041.92 1209.11 1041.58C1215.63 1040.83 1219.25 1044.88 1225.83 1043.8C1225.34 1039.7 1222.95 1038.38 1221.72 1035.33C1219.36 1029.52 1224.13 1020.36 1226.24 1016.66C1229.22 1011.46 1232.44 1006.58 1235.97 1001.93C1237.56 1000.08 1239.16 998.23 1240.76 996.381C1240.74 995.691 1240.72 995.002 1240.7 994.312C1238.59 993.286 1236.48 992.261 1234.37 991.235C1227.56 987.392 1219.27 980.791 1210.29 979.732Z" fill="#4AB14A"/>
<path fill-rule="evenodd" clip-rule="evenodd" d="M625.267 981.75C624.083 982.086 622.9 982.423 621.716 982.759C620.173 984.928 618.629 987.098 617.085 989.267C617.273 990.007 617.463 990.747 617.651 991.487C618.778 995.737 620.512 998.075 625.267 998.752C626.33 998.802 627.395 998.853 628.457 998.903C632.227 997.908 637.499 990.903 634.066 985.786C632.615 983.622 628.475 982.174 625.267 981.75Z" fill="#4AB14A"/>
<path fill-rule="evenodd" clip-rule="evenodd" d="M143.672 1046.32C147.133 1046.37 148.575 1044.04 150.825 1042.74C153.298 1041.31 155.961 1040.22 159.007 1039.36C159.916 1039.16 160.825 1038.96 161.734 1038.75C162.437 1039.58 163.141 1040.4 163.844 1041.23C167.548 1046.4 168.59 1054.81 176.606 1055.75C182.616 1056.47 186.213 1053.08 190.551 1051.82C195.185 1050.47 208.949 1051.87 212.06 1053.84C213.768 1054.92 221.356 1069.99 219.882 1074.42C215.747 1077.84 211.612 1081.25 207.48 1084.66C207.359 1088.51 207.241 1092.37 207.12 1096.22C205.962 1106.34 204.364 1115.18 202.283 1124.17C201.786 1126.64 201.288 1129.11 200.791 1131.58C200.172 1132.49 193.141 1135.31 191.528 1136.63C194.444 1142.16 197.36 1147.69 200.276 1153.23C197.875 1160.66 195.473 1168.09 193.072 1175.52C193.601 1178.31 201.951 1182.87 201.82 1186.27C201.509 1194.31 195.151 1200.09 191.22 1204.99C190.122 1206.4 189.024 1207.81 187.926 1209.23C188.321 1210.49 188.715 1211.75 189.11 1213.01C193.508 1220.65 207.961 1216.45 215.096 1221.33C218.037 1223.35 219.161 1227.45 220.653 1230.87C223.998 1238.53 227.346 1246.5 234.084 1250.85C235.605 1251.83 243.936 1255.14 247.103 1253.17C248.613 1251.15 250.121 1249.13 251.631 1247.11C256.093 1241.91 267.876 1231.69 275.302 1229.96C291.629 1229.96 307.962 1229.96 324.29 1229.96C327.521 1229.96 339.809 1230.61 341.58 1229.61C350.026 1224.84 353.544 1210.29 361.597 1205.34C367.357 1201.8 379.651 1202.88 383.724 1197.67C387.493 1192.85 386.963 1183.93 389.59 1178C390.529 1175.88 393.176 1174 394.89 1172.55C398.286 1169.32 401.683 1166.09 405.079 1162.86C401.819 1156.99 398.562 1151.12 395.302 1145.25C395.816 1142.88 396.331 1140.51 396.845 1138.14C401.896 1120.7 413.088 1110.87 423.295 1098.69C426.297 1095.11 425.716 1085.06 430.242 1083.15C442.383 1080.64 454.53 1078.14 466.674 1075.63C468.714 1073.92 470.757 1072.2 472.797 1070.49C475.782 1067.96 478.766 1065.44 481.751 1062.92C484.342 1061.05 486.93 1059.19 489.521 1057.32C490.535 1056.47 492.192 1054.81 492.557 1053.43C492.385 1048.88 492.215 1044.32 492.043 1039.76C482.623 1037.95 468.591 1040.16 461.322 1042.89C457.748 1044.23 454.877 1047.85 449.435 1046.88C436.988 1044.64 440.536 1028.3 425.662 1028.16C423.568 1032.14 418.62 1035.65 412.231 1034.21C406.916 1032.51 401.595 1030.82 396.279 1029.12C385.828 1026.22 374.533 1024.53 365.147 1020.59C359.116 1018.06 355.751 1013.9 351.871 1009.34C350.739 1008.05 349.607 1006.75 348.475 1005.46C342.454 1005.22 336.434 1004.99 330.413 1004.75C319.934 1004.31 309.452 1003.88 298.972 1003.44C292.913 1004.24 287.575 1006.03 280.602 1006.01C275.994 1006 272.286 1004.96 268.406 1004.14C260.482 1002.56 252.557 1000.98 244.633 999.402C233.348 999.57 222.058 999.738 210.774 999.906C206.863 1000.34 203.279 999.026 199.967 998.393C192.73 997.149 185.49 995.904 178.252 994.66C175.799 994.222 173.346 993.785 170.894 993.348C158.905 1000.75 146.913 1008.15 134.925 1015.55C134.886 1021.13 142.536 1024.8 144.187 1029.12C144.015 1034.85 143.844 1040.59 143.672 1046.32Z" fill="#4AB14A"/>
<path fill-rule="evenodd" clip-rule="evenodd" d="M1601.94 1002.94C1601.61 1003.12 1601.29 1003.31 1600.96 1003.49C1600.96 1004.15 1600.96 1004.81 1600.96 1005.46C1605.23 1008.13 1610.9 1009.06 1616.24 1010.81C1626.13 1014.05 1633.38 1020.28 1638.27 1028.42C1641.51 1033.81 1643.47 1040.07 1644.44 1047.74C1645.35 1054.84 1642.22 1059.23 1647.32 1062.47C1649.5 1061.5 1652.2 1061.19 1654.89 1060.81C1669.59 1058.71 1678.62 1066.82 1686.95 1072.26C1689.68 1074.04 1693.51 1077.06 1697.14 1077.61C1709.69 1076.26 1722.25 1074.91 1734.8 1073.57C1738.64 1072.07 1740.09 1068.04 1745.2 1067.52C1748.73 1067.15 1751.74 1068.46 1754.1 1069.43C1761.98 1072.67 1768.96 1079.03 1780.03 1078.11C1778.13 1072.25 1772.62 1070.54 1769.79 1065.75C1768.17 1063 1770.04 1056.74 1768.77 1055.46C1767.65 1055.09 1766.53 1054.72 1765.42 1054.35C1763.29 1053.46 1761.46 1052.19 1759.81 1050.82C1756.44 1048 1754.19 1043.68 1751.53 1040.17C1750.74 1039.2 1749.95 1038.22 1749.16 1037.25C1747.84 1036.88 1746.52 1036.51 1745.2 1036.14C1740.39 1034.4 1735.68 1032.53 1730.12 1031.59C1727.23 1031.11 1723.64 1031.25 1721.17 1032C1717.52 1033.11 1711.48 1037.36 1706.66 1035.83C1702.99 1034.67 1702.27 1030.28 1699.19 1028.62C1688.2 1023.84 1677.2 1019.07 1666.21 1014.29C1655.76 1010.45 1641.5 1010.91 1628.9 1008.99C1619.36 1007.54 1611.03 1004.62 1601.94 1002.94Z" fill="#4AB14A"/>
<path fill-rule="evenodd" clip-rule="evenodd" d="M973.174 1003.45C969.359 1006.93 965.772 1010.16 963.757 1015.46C962.916 1018.52 962.077 1021.58 961.236 1024.64C960.541 1026.91 958.457 1029.78 959.795 1032.76C961.298 1036.11 965.445 1038.07 968.337 1040.13C969.407 1040.88 971.924 1044.01 972.66 1044.31C978.443 1042.32 983.602 1031.57 987.582 1027.01C992.005 1021.94 997.061 1032.44 1002.2 1023.58C1002.66 1022.77 1003.32 1020.7 1002.56 1019.64C992.764 1014.25 982.967 1008.85 973.174 1003.45Z" fill="#4AB14A"/>
<path fill-rule="evenodd" clip-rule="evenodd" d="M1021.03 1014.04C1019.13 1016.67 1019.02 1021.13 1016.97 1023.63C1014.97 1026.05 1008.89 1026.78 1008.17 1030.14C1007.29 1034.19 1018.19 1044.23 1021.96 1044.31C1023.26 1043.91 1024.56 1043.51 1025.87 1043.1C1031.55 1041.47 1037.29 1040.32 1041.25 1037.05C1049.6 1030.17 1028.4 1015.44 1021.03 1014.04Z" fill="#4AB14A"/>
<path fill-rule="evenodd" clip-rule="evenodd" d="M679.812 1023.11C675.282 1027.53 668.543 1029.57 665.764 1035.73C662.535 1042.88 665.924 1052.29 667.823 1058.48C668.234 1059.98 668.646 1061.47 669.058 1062.97C670.455 1064.93 675.408 1066.87 678.835 1067.01C678.796 1064.41 681.598 1060.33 682.488 1057.77C685.514 1049.08 687.989 1030.58 681.871 1023.11C681.184 1023.11 680.499 1023.11 679.812 1023.11Z" fill="#4AB14A"/>
<path fill-rule="evenodd" clip-rule="evenodd" d="M450.825 1026.15C448.784 1027.66 446.741 1029.17 444.701 1030.69C444.701 1033.04 444.701 1035.4 444.701 1037.75C446.417 1039.09 448.131 1040.44 449.847 1041.79C451.47 1042.17 458.134 1038.51 458.595 1037.75C459.632 1036.04 457.715 1029.19 457 1028.62C454.941 1027.79 452.883 1026.97 450.825 1026.15Z" fill="#4AB14A"/>
<path fill-rule="evenodd" clip-rule="evenodd" d="M993.603 1036.24C992.11 1036.4 990.618 1036.57 989.126 1036.74C987.942 1038.27 986.759 1039.8 985.575 1041.33C978.636 1050.22 989.306 1055.21 987.994 1065.6C986.525 1077.23 978.24 1096.74 984.958 1108.13C987.904 1113.12 994.274 1114.62 998.646 1118.22C999.965 1120.66 1001.29 1123.1 1002.61 1125.53C1006.87 1124.68 1012.87 1116.71 1013.83 1112.47C1014.49 1109.54 1014.06 1105.53 1015.73 1103.59C1017.17 1101.9 1024.55 1098.11 1024.63 1096.22C1024.82 1091.76 1017.34 1088.78 1015.01 1086.08C1012.39 1083.04 1010.36 1079.39 1009.3 1074.83C1008.55 1071.64 1008.58 1067.28 1009.35 1064.14C1010.4 1059.85 1013.72 1053.45 1011.25 1048.29C1009.87 1045.41 1006.82 1042.97 1004.36 1041.08C1001.63 1038.98 998.285 1036.25 993.603 1036.24Z" fill="#4AB14A"/>
<path fill-rule="evenodd" clip-rule="evenodd" d="M1060.6 1043.81C1051.12 1048.31 1036.62 1047.43 1027.15 1051.58C1023.86 1053.02 1024.18 1055.24 1022.52 1058.09C1018.03 1065.79 1012.96 1073 1020.57 1081.9C1025.64 1087.83 1041.32 1088.41 1048.92 1084.22C1052.94 1082 1055.89 1078.15 1060.86 1077.01C1062.97 1076.52 1065.62 1076.06 1068.32 1076.35C1070.04 1076.53 1072.19 1076.9 1073.93 1076.5C1076.53 1075.91 1078.21 1074.18 1079.95 1072.72C1080.72 1071.99 1081.49 1071.27 1082.26 1070.55C1081.56 1064.48 1080.86 1058.41 1080.15 1052.33C1072.94 1049.66 1072.09 1043.79 1060.6 1043.81Z" fill="#4AB14A"/>
<path fill-rule="evenodd" clip-rule="evenodd" d="M157.515 1046.32C153.902 1049.71 148.577 1052.25 144.702 1055.5C144.015 1056.14 143.329 1056.78 142.643 1057.42C142.764 1058.76 142.883 1060.11 143.004 1061.45C144.809 1072.16 152.26 1079.19 150.414 1092.38C149.215 1100.94 145.395 1107.91 143.673 1115.89C143.158 1120.46 142.643 1125.04 142.129 1129.61C140.379 1131.38 138.629 1133.14 136.88 1134.91C134.993 1136.86 133.106 1138.81 131.22 1140.76C128.052 1145.16 127.529 1154.82 128.75 1161.8C130.701 1172.96 135.091 1173.12 144.444 1176.68C145.731 1177.29 147.017 1177.89 148.304 1178.5C148.509 1181.06 148.715 1183.61 148.921 1186.17C149.401 1191.92 149.882 1197.67 150.362 1203.42C149.504 1209.07 148.647 1214.72 147.789 1220.37C148.321 1220.71 148.853 1221.05 149.384 1221.38C155.022 1218.69 163.297 1220.8 168.835 1222.04C170.568 1222.32 172.3 1222.61 174.033 1222.9C175.405 1221.79 176.777 1220.68 178.149 1219.57C183.146 1215.64 182.389 1215.72 181.134 1208.06C180.996 1207.11 180.859 1206.15 180.722 1205.19C181.957 1204.13 183.192 1203.07 184.427 1202.01C186.767 1199.72 193.506 1191.49 194.101 1188.14C194.929 1183.47 185.837 1178.39 185.353 1175.02C185.919 1173.39 186.486 1171.76 187.052 1170.13C188.781 1165.57 190.326 1161.09 190.962 1155.6C191.97 1146.9 177.827 1134.84 184.633 1130.17C187.789 1129.13 190.945 1128.08 194.101 1127.04C194.382 1116.28 199.397 1108.66 201.151 1098.84C201.743 1095.52 201.913 1091.1 201.357 1087.59C200.997 1085.92 200.636 1084.26 200.276 1082.59C200.842 1079.56 208.229 1075.04 210.671 1073.16C211.322 1072.62 211.975 1072.08 212.626 1071.54C213.694 1068.33 207.192 1058.53 205.422 1057.92C203.382 1058.06 201.339 1058.19 199.299 1058.33C190.548 1059.6 182.684 1063.24 172.695 1062.06C171.288 1061.88 169.882 1061.69 168.475 1061.51C168.012 1060.8 167.549 1060.09 167.086 1059.39C165.167 1056.1 162.049 1046.3 157.515 1046.32Z" fill="#4AB14A"/>
<path fill-rule="evenodd" clip-rule="evenodd" d="M1209.83 1049.35C1203.89 1054.34 1193.29 1051.18 1189.3 1059.39C1191.85 1061.52 1194.94 1062.14 1196.35 1065.45C1196.57 1066.49 1196.79 1067.53 1197.02 1068.58C1195.9 1070.63 1194.79 1072.68 1193.67 1074.73C1191.33 1079.83 1189.18 1085.21 1186.06 1089.56C1184.39 1091.46 1182.73 1093.36 1181.06 1095.26C1179.69 1098.77 1186.49 1108.01 1187.75 1109.89C1191.88 1109.94 1194.35 1106.26 1196.81 1104.4C1206.12 1097.15 1215.44 1089.9 1224.75 1082.65C1227.03 1082.55 1229.31 1082.45 1231.6 1082.35C1240.11 1081.47 1253.88 1083.05 1259.28 1079.12C1259.11 1078.11 1258.94 1077.1 1258.77 1076.09C1251.41 1072.58 1244.05 1069.06 1236.69 1065.55C1235.3 1061.5 1233.91 1057.44 1232.52 1053.39C1224.96 1052.04 1217.39 1050.7 1209.83 1049.35Z" fill="#4AB14A"/>
<path fill-rule="evenodd" clip-rule="evenodd" d="M1406.14 1053.39C1403.48 1053.56 1400.82 1053.73 1398.17 1053.89C1386.84 1057.26 1375.52 1060.62 1364.2 1063.98C1352.75 1071.38 1341.29 1078.78 1329.83 1086.18C1311.12 1085.01 1292.4 1083.83 1273.69 1082.65C1273 1084.57 1272.32 1086.49 1271.63 1088.4C1269.08 1094.58 1265.82 1100.25 1262.16 1105.35C1261.56 1106.19 1260.96 1107.04 1260.36 1107.88C1246.09 1108.21 1231.82 1108.55 1217.55 1108.89C1215.18 1109.35 1213.08 1111.68 1211.42 1113.02C1204.94 1118.3 1198.99 1124.46 1193.57 1130.78C1192.28 1132.28 1187.53 1136.82 1187.24 1138.6C1186.51 1143.1 1201.68 1150.07 1202.68 1155.25C1202.47 1156.21 1202.26 1157.17 1202.06 1158.12C1199.65 1166.21 1193.54 1170.44 1191.36 1178.76C1191.18 1179.68 1191.01 1180.61 1190.84 1181.53C1197.53 1187.57 1204.22 1193.61 1210.91 1199.65C1216.42 1209.75 1221.92 1219.86 1227.43 1229.97C1237.89 1229.97 1248.36 1229.97 1258.82 1229.97C1268.04 1235.85 1277.28 1241.74 1286.5 1247.62C1288.97 1247.1 1291.44 1246.58 1293.91 1246.06C1297.12 1245.4 1300.33 1244.75 1303.53 1244.09C1306.28 1239.55 1309.02 1235.01 1311.77 1230.47C1313.21 1230.32 1314.65 1230.17 1316.09 1230.02C1324.48 1228.99 1335.88 1228.72 1343.57 1230.52C1355.93 1233.41 1358.81 1247.05 1372.13 1248.68C1385.47 1247.66 1398.82 1246.63 1412.16 1245.61C1413.31 1245.03 1414.46 1244.46 1415.61 1243.89C1421.31 1239.92 1427.39 1228.07 1433.57 1226.43C1442.06 1224.19 1452.23 1232.29 1459.81 1233.45C1465.87 1234.37 1474.4 1229.19 1479.31 1232.34C1481.75 1233.9 1477.37 1239.45 1476.54 1240.41C1475.17 1241.98 1471.8 1243.93 1471.29 1246.06C1470.44 1249.53 1476.31 1254.11 1478.49 1255.19C1483.97 1251.97 1487.47 1248.67 1489.4 1241.92C1490.76 1237.19 1490.11 1227.82 1494.91 1226.43C1498.36 1225.44 1501.88 1231.29 1505.3 1230.98C1513.34 1228.84 1521.39 1226.7 1529.43 1224.57C1532.05 1223.84 1534.92 1222.35 1538.29 1222.75C1543.78 1223.4 1546.37 1227.01 1551 1227.95C1559.6 1228.12 1568.22 1228.28 1576.83 1228.45C1586.89 1224.59 1596.97 1220.72 1607.03 1216.85C1614.3 1216.85 1621.58 1216.85 1628.85 1216.85C1639.67 1214.51 1650.5 1212.17 1661.32 1209.84C1673.23 1207.53 1690.32 1205.98 1702.33 1209.28C1706.51 1210.43 1710.33 1211.92 1713.55 1214.02C1714.96 1215.13 1716.36 1216.24 1717.77 1217.35C1720.85 1218.47 1725.64 1215.73 1727.03 1214.83C1725.11 1204.81 1717.04 1200.88 1714.32 1191.83C1712.12 1184.5 1719.8 1183.54 1718.9 1177.04C1717.39 1166.06 1712.19 1157.9 1710.77 1146.17C1710.53 1144.16 1710.21 1140.18 1711.08 1138.6C1712.8 1135.45 1726.92 1133.17 1725.49 1128.51C1723.3 1121.4 1703.88 1117.17 1697.19 1112.92C1697.16 1106.59 1700.62 1102.06 1699.45 1095.62C1697.8 1086.5 1677.58 1070.33 1667.91 1069.03C1663.24 1069.37 1658.58 1069.7 1653.91 1070.04C1648.6 1070.21 1643.27 1070.37 1637.96 1070.54C1626.67 1076.43 1615.38 1082.32 1604.1 1088.2C1593.76 1087.36 1583.41 1086.52 1573.07 1085.68C1562.26 1087.36 1551.46 1089.04 1540.65 1090.72C1534.05 1088.44 1527.44 1086.15 1520.84 1083.86C1514 1081.61 1507.15 1079.35 1500.31 1077.1C1489.54 1073.12 1479.31 1068.57 1469.13 1064.09C1464.12 1061.58 1459.11 1059.07 1454.1 1056.57C1452.13 1055.51 1450.16 1054.45 1448.18 1053.39C1434.17 1053.39 1420.15 1053.39 1406.14 1053.39Z" fill="#4AB14A"/>
<path fill-rule="evenodd" clip-rule="evenodd" d="M1786.72 1154.29C1791.59 1154.36 1794.26 1149.97 1797.17 1147.74C1801.88 1144.11 1821.84 1129.32 1830.05 1131.69C1833.27 1132.62 1835.82 1135.54 1837.72 1137.85C1847.18 1149.38 1834.55 1150.14 1833.14 1159.04C1832.99 1159.96 1833.14 1161.26 1833.55 1161.86C1835.61 1163.7 1837.67 1165.53 1839.73 1167.36C1842.14 1169.69 1845.32 1175.94 1850.07 1175.43C1851.21 1172.45 1850.53 1166.92 1850.53 1163.12C1850.53 1162 1850.53 1160.87 1850.53 1159.74C1851.43 1156.5 1856.06 1153.87 1858.46 1151.87C1860.88 1149.85 1863.07 1147.31 1864.68 1144.51C1868.86 1137.25 1868.39 1125.28 1871.12 1116.66C1871.77 1115.11 1872.42 1113.56 1873.07 1112.02C1878.94 1110.97 1884.8 1109.93 1890.67 1108.89C1890.43 1102.47 1876.96 1105 1873.23 1101.88C1872.52 1100.36 1871.82 1098.85 1871.12 1097.34C1869.06 1093.79 1867 1090.24 1864.94 1086.69C1860.85 1080.36 1856.09 1074.63 1851.25 1069.03C1849.12 1066.85 1847 1064.66 1844.87 1062.47C1840.53 1064.05 1837.33 1068.09 1833.96 1070.8C1832.59 1071.93 1831.22 1073.05 1829.85 1074.18C1827.94 1076.48 1825.17 1082.83 1822.28 1083.66C1820 1083.26 1817.72 1082.86 1815.44 1082.45C1812.8 1081.98 1810.16 1081.51 1807.51 1081.04C1800.77 1078.22 1797.24 1069.93 1792.59 1064.9C1791.22 1063.42 1784.11 1058.23 1780.55 1059.45C1776.27 1060.91 1779.82 1065.11 1781.17 1066.66C1785.33 1071.47 1795.42 1080.78 1784.56 1085.53C1775.22 1089.62 1758.96 1081.38 1752.66 1078.27C1750.65 1077.21 1748.65 1076.15 1746.64 1075.09C1745.59 1075.61 1744.55 1076.13 1743.5 1076.65C1743.51 1084.79 1752.19 1086.23 1756.16 1090.68C1756.74 1091.35 1757.32 1092.02 1757.91 1092.69C1756.88 1095.55 1755.85 1098.41 1754.82 1101.27C1758.65 1103.86 1769.36 1107.66 1767.22 1114.79C1766.21 1118.16 1763.4 1119.73 1762.54 1123.52C1768.42 1127.26 1774.93 1130.55 1781.01 1134.16C1782.57 1135.16 1784.13 1136.15 1785.7 1137.14C1786.04 1142.86 1786.38 1148.58 1786.72 1154.29Z" fill="#4AB14A"/>
<path fill-rule="evenodd" clip-rule="evenodd" d="M1184.15 1065C1183.33 1067.07 1181.9 1075.84 1180.5 1076.65C1178.65 1077.11 1176.79 1077.56 1174.94 1078.01C1167.85 1079.82 1155.94 1082.71 1148.95 1078.82C1144.31 1076.24 1137.5 1068.56 1130.33 1069.44C1128.8 1070.08 1127.27 1070.72 1125.75 1071.36C1121.56 1073.27 1117.38 1075.19 1113.19 1077.11C1104.05 1077.11 1094.91 1077.11 1085.76 1077.11C1081.73 1077.85 1080.76 1082.04 1077.22 1083.36C1072.72 1085.05 1066.65 1081.8 1062.15 1083.67C1057.89 1086.19 1053.64 1088.71 1049.38 1091.23C1044.39 1091.91 1039.4 1092.58 1034.41 1093.25C1032.97 1094.06 1032.18 1100.13 1030.91 1101.73C1027.77 1103.96 1024.63 1106.2 1021.49 1108.44C1020.03 1110.36 1020.46 1114.15 1019.9 1116.91C1019.32 1119.77 1017.79 1121.48 1016.19 1123.32C1013.46 1126.46 1005.36 1132.27 1007.39 1138.71C1008.92 1143.54 1012.69 1147.45 1015.58 1151.12C1023.14 1160.71 1030 1166.62 1034.82 1179.32C1040.23 1193.57 1041.42 1213.95 1050.72 1224.27C1054.79 1226.59 1058.85 1228.91 1062.92 1231.23C1069.54 1235.56 1074.62 1239.32 1085.87 1237.54C1086.41 1234.89 1086.31 1231.85 1085.56 1229.42C1084.02 1224.47 1075.38 1212.77 1081.85 1208.73C1084.16 1207.29 1090.56 1206.29 1093.59 1205.76C1093.8 1201.29 1092.32 1198.79 1090.96 1195.82C1090.47 1194.74 1089.97 1193.66 1089.47 1192.59C1090.66 1183.8 1109.62 1193.63 1112.68 1194.66C1118.59 1188.95 1113.6 1183.59 1109.74 1179.12C1104.64 1173.19 1098.07 1168.3 1091.89 1163.43C1089.88 1161.75 1087.87 1160.06 1085.87 1158.38C1085.9 1157.61 1085.94 1156.83 1085.97 1156.06C1086.59 1151.43 1089.16 1149.57 1092.04 1147.23C1088.39 1137.33 1071.48 1124.51 1074.7 1111.16C1075.36 1108.43 1076.85 1106.45 1078.51 1104.7C1085.33 1097.51 1096.02 1113.35 1098.73 1118.48C1108.9 1118.58 1114.19 1118.5 1121.32 1115.5C1122.75 1108.39 1101.07 1101.05 1110.41 1093.86C1112.73 1092.07 1116.74 1092.02 1120.09 1091.23C1126.3 1089.67 1132.51 1088.1 1138.71 1086.54C1141.24 1085.92 1143.76 1085.3 1146.28 1084.67C1149.59 1085.51 1152.9 1086.36 1156.21 1087.2C1162.73 1089.03 1175.42 1091.8 1181.22 1087.3C1183.69 1085.37 1185.11 1082.3 1186.42 1079.23C1187.7 1075.63 1188.99 1072.03 1190.28 1068.43C1188.18 1066.62 1188.41 1064.96 1184.15 1065Z" fill="#4AB14A"/>
<path fill-rule="evenodd" clip-rule="evenodd" d="M1732.13 1081.14C1724.89 1084.74 1708.79 1081.62 1702.85 1086.23C1703.77 1089.34 1704.7 1092.46 1705.63 1095.57C1706.09 1099.68 1701.58 1107.07 1704.34 1110.35C1710.34 1112.53 1716.35 1114.72 1722.35 1116.91C1725.76 1119.93 1729.18 1122.96 1732.59 1125.99C1735.39 1126.34 1738.18 1126.69 1740.98 1127.05C1743.88 1129.74 1746.77 1132.43 1749.67 1135.12C1753.65 1135.32 1757.63 1135.52 1761.61 1135.72C1762.45 1137.41 1763.29 1139.09 1764.13 1140.77C1766.52 1146.31 1768.35 1152.36 1772.06 1156.61C1772.85 1157.52 1776.8 1161.71 1778.95 1159.34C1781.06 1157.02 1781.56 1143.34 1778.95 1141.07C1772.36 1135.32 1760.69 1134.25 1756.16 1126.49C1755.7 1125.71 1754.39 1123.23 1754.82 1121.95C1756.71 1119.28 1758.59 1116.6 1760.48 1113.93C1757.93 1109.52 1751.61 1107.97 1748.8 1103.59C1746.41 1099.86 1750.6 1096.67 1749.37 1092.74C1749.35 1092.69 1749.33 1092.64 1749.31 1092.59C1749.28 1092.51 1749.24 1092.42 1749.21 1092.34C1747.82 1091.56 1746.43 1090.79 1745.04 1090.02C1743.11 1087.97 1741.17 1085.91 1739.23 1083.86C1739.16 1083.79 1739.09 1083.73 1739.02 1083.66C1738.97 1083.64 1738.92 1083.63 1738.87 1083.61C1738.83 1083.56 1738.8 1083.51 1738.77 1083.46C1738.7 1083.41 1738.63 1083.36 1738.56 1083.31C1738.49 1083.26 1738.42 1083.21 1738.35 1083.16C1738.3 1083.1 1738.25 1083.05 1738.2 1083C1738.13 1082.95 1738.06 1082.9 1737.99 1082.85C1737.91 1082.8 1737.82 1082.75 1737.74 1082.7C1737.67 1082.65 1737.6 1082.6 1737.53 1082.55C1737.46 1082.5 1737.39 1082.45 1737.32 1082.4C1736.02 1081.6 1734.05 1081.33 1732.13 1081.14Z" fill="#4AB14A"/>
<path fill-rule="evenodd" clip-rule="evenodd" d="M676.776 1087.19C671.231 1091.93 661.501 1092.2 655.678 1096.72C657.168 1099.9 658.408 1103.07 659.074 1107.32C660.646 1117.33 658.897 1130.01 660.721 1139.56C661.519 1143.74 661.866 1149.81 667.822 1149.04C671.826 1148.52 672.07 1144.68 675.335 1143.29C678.515 1141.93 684.088 1142.68 687.016 1141.02C687.394 1140.72 687.77 1140.41 688.148 1140.11C689.869 1137.66 690.456 1133.81 691.081 1130.42C694.094 1114.16 688.501 1090.91 676.776 1087.19Z" fill="#4AB14A"/>
<path fill-rule="evenodd" clip-rule="evenodd" d="M1739.38 1135.12C1739.21 1136.13 1739.04 1137.14 1738.87 1138.15C1739.95 1139.56 1741.03 1140.98 1742.11 1142.39C1745.85 1147.48 1754.79 1159.82 1764.65 1157.78C1764.8 1157.46 1764.96 1157.14 1765.11 1156.82C1762.18 1151.6 1759.25 1146.39 1756.31 1141.18C1747.54 1141.29 1745.21 1137.44 1739.38 1135.12Z" fill="#4AB14A"/>
<path fill-rule="evenodd" clip-rule="evenodd" d="M851.167 1186.59C848.579 1188.06 844.863 1188.53 841.596 1189.21C832.284 1191.16 818.88 1193.34 807.582 1191.93C799.508 1190.93 791.468 1188.56 782.265 1189.61C781.712 1192.56 781.367 1196.95 782.882 1199.25C790.959 1201.2 798.61 1205.23 805.987 1208.28C812.658 1210.94 819.332 1213.59 826.004 1216.25C829.691 1217.14 833.38 1218.03 837.067 1218.92C839.818 1219.69 842.715 1220.6 844.838 1222.05C846.438 1223.14 848.033 1226.7 850.138 1226.95C850.686 1226.74 851.236 1226.54 851.784 1226.34C852.304 1223.7 853.236 1220.69 852.711 1217.36C852.142 1213.76 850.47 1210.55 851.064 1206.16C853.174 1200.14 855.284 1194.12 857.393 1188.1C855.317 1187.6 853.243 1187.09 851.167 1186.59Z" fill="#4AB14A"/>
<path fill-rule="evenodd" clip-rule="evenodd" d="M830.121 1245.61C823.917 1260.67 838.925 1265.04 852.247 1262.76C852.402 1262.07 852.556 1261.38 852.711 1260.69C844.992 1255.57 842.084 1246.82 830.121 1245.61Z" fill="#4AB14A"/>
<path fill-rule="evenodd" clip-rule="evenodd" d="M1317.43 1278.4C1319.73 1278.42 1321.07 1279.65 1323.55 1279.91C1328.75 1280.46 1337.87 1275.46 1339.04 1272.4C1339.04 1271.37 1339.04 1270.34 1339.04 1269.32C1337.82 1269.15 1336.6 1268.98 1335.39 1268.81C1333.82 1269.38 1332.27 1269.96 1330.7 1270.53C1325.96 1272.26 1321.52 1273.73 1317.43 1275.88C1317.43 1276.72 1317.43 1277.56 1317.43 1278.4Z" fill="#4AB14A"/>
<path fill-rule="evenodd" clip-rule="evenodd" d="M1111.08 1271.34C1110.22 1272.5 1109.37 1273.66 1108.51 1274.82C1109.1 1275.94 1114.17 1278.55 1115.76 1278.4C1116.61 1278.07 1117.44 1277.73 1118.29 1277.39C1117.44 1273.84 1115.03 1271.86 1111.08 1271.34Z" fill="#4AB14A"/>
</svg>
