<svg version="1.1" xmlns="http://www.w3.org/2000/svg" xmlns:xlink="http://www.w3.org/1999/xlink" preserveAspectRatio="xMidYMid meet" viewBox="0 0 430 430" width="430" height="430">
<defs>
<path d="M366.62 102.95C366.62 100.67 366.62 82.42 366.62 80.14C366.62 74.64 362.12 70.14 356.62 70.14C328.29 70.14 101.71 70.14 73.38 70.14C67.88 70.14 63.38 74.64 63.38 80.14C63.38 82.42 63.38 100.67 63.38 102.95C63.38 108.45 67.88 112.95 73.38 112.95C92.27 112.95 186.68 112.95 356.62 112.95C363.28 109.95 366.62 106.62 366.62 102.95Z" id="bVBkEPfhF"/>
<path d="M214.78 382.84L349.79 304.9L349.79 104.47L79.78 104.47L79.78 304.9L214.78 382.84Z" id="e12keyeVe"/>
<path d="M337.31 104.47L337.31 141.93L92.25 141.93L92.25 103.41" id="hHvXoudn5"/>
<path d="M214.78 412.95L337.31 342.21L337.31 141.93L92.25 141.93L92.25 342.21L214.78 412.95Z" id="d3BXFjAl6o"/>
<path d="M79.78 172.61L79.78 161.86L92.25 161.86L92.25 172.61L79.78 172.61Z" id="e4pHSKI7Y"/>
<path d="M337.31 172.61L337.31 161.86L349.79 161.86L349.79 172.61L337.31 172.61Z" id="a1h1GxHjHF"/>
<path d="M214.78 412.95L90.37 341.13L214.78 417.05L339.18 341.13L214.78 412.95Z" id="a60vkXb8"/>
<path d="M289.15 155.76C289.15 155.76 291.98 155.76 295.46 155.76C298.95 155.76 301.78 151.26 301.78 145.76C301.78 143.48 301.78 125.23 301.78 122.95C301.78 117.45 297.28 112.95 291.78 112.95C276.43 112.95 153.57 112.95 138.21 112.95C132.71 112.95 128.21 117.45 128.21 122.95C128.21 125.23 128.21 143.48 128.21 145.76C128.21 151.26 131.01 155.76 134.4 155.76C137.8 155.76 140.59 155.76 140.59 155.76" id="i28ZWhoRRP"/>
<path d="M231.28 70.14L198.71 70.14" id="cggrNKgZ"/>
<path d="M214.78 70.14L214.78 92.95" id="b5GNzfKkNz"/>
<path d="M186.18 29.46L214.78 12.95L243.37 29.46L214.78 70.14L186.18 29.46Z" id="ajptlPvk"/>
<path d="M289.15 135.76C289.15 135.76 291.98 135.76 295.46 135.76C298.95 135.76 301.78 131.26 301.78 125.76C301.78 123.48 301.78 105.23 301.78 102.95C301.78 97.45 297.28 92.95 291.78 92.95C276.43 92.95 153.57 92.95 138.21 92.95C132.71 92.95 128.21 97.45 128.21 102.95C128.21 105.23 128.21 123.48 128.21 125.76C128.21 131.26 131.01 135.76 134.4 135.76C137.8 135.76 140.59 135.76 140.59 135.76" id="a1AOQ6Su14"/>
<path d="M282.28 175.28L214.78 175.28L147.28 175.28L147.28 299.86L214.78 338.84L282.28 299.86L282.28 175.28Z" id="a1L5VPCLBq"/>
<path d="M288.4 104.47L214.78 104.47L141.16 104.47L141.16 277.94L214.78 320.44L288.4 277.94L288.4 104.47Z" id="e17t9xyHpT"/>
<path d="M169.76 166.08L187.46 166.08L187.46 259.98L169.76 259.98L169.76 166.08Z" id="aEnOERMys"/>
<path d="M212.11 166.08L229.81 166.08L236.71 205.38L239.86 227.28L242.86 205.53L249.91 166.08L267.02 166.08L249.46 260.28L229.81 260.28L212.11 166.08Z" id="jCpSQYuww"/>
</defs>
<use xlink:href="#bVBkEPfhF" opacity="1" fill="#000000" fill-opacity="0"/>
<use xlink:href="#bVBkEPfhF" opacity="1" fill-opacity="0" stroke="#c8c8c8" stroke-width="10" stroke-opacity="1"/>
<use xlink:href="#e12keyeVe" opacity="1" fill="#7f6029" fill-opacity="1"/>
<use xlink:href="#e12keyeVe" opacity="1" fill-opacity="0" stroke="#000000" stroke-width="1" stroke-opacity="0"/>
<use xlink:href="#hHvXoudn5" opacity="1" fill="#a57d35" fill-opacity="1"/>
<use xlink:href="#hHvXoudn5" opacity="1" fill-opacity="0" stroke="#000000" stroke-width="1" stroke-opacity="0"/>
<use xlink:href="#d3BXFjAl6o" opacity="1" fill="#bc783c" fill-opacity="1"/>
<use xlink:href="#d3BXFjAl6o" opacity="1" fill-opacity="0" stroke="#000000" stroke-width="1" stroke-opacity="0"/>
<use xlink:href="#e4pHSKI7Y" opacity="0.25" fill="#231f20" fill-opacity="1"/>
<use xlink:href="#e4pHSKI7Y" opacity="0.25" fill-opacity="0" stroke="#000000" stroke-width="1" stroke-opacity="0"/>
<use xlink:href="#a1h1GxHjHF" opacity="0.25" fill="#231f20" fill-opacity="1"/>
<use xlink:href="#a1h1GxHjHF" opacity="0.25" fill-opacity="0" stroke="#000000" stroke-width="1" stroke-opacity="0"/>
<use xlink:href="#a60vkXb8" opacity="1" fill="#e5ad4a" fill-opacity="1"/>
<use xlink:href="#a60vkXb8" opacity="1" fill-opacity="0" stroke="#000000" stroke-width="1" stroke-opacity="0"/>
<use xlink:href="#i28ZWhoRRP" opacity="0.25" fill="#000000" fill-opacity="0"/>
<use xlink:href="#i28ZWhoRRP" opacity="0.25" fill-opacity="0" stroke="#231f20" stroke-width="10" stroke-opacity="1"/>
<use xlink:href="#cggrNKgZ" opacity="0.25" fill="#000000" fill-opacity="0"/>
<use xlink:href="#cggrNKgZ" opacity="0.25" fill-opacity="0" stroke="#231f20" stroke-width="10" stroke-opacity="1"/>
<use xlink:href="#b5GNzfKkNz" opacity="1" fill="#000000" fill-opacity="0"/>
<use xlink:href="#b5GNzfKkNz" opacity="1" fill-opacity="0" stroke="#c8c8c8" stroke-width="10" stroke-opacity="1"/>
<use xlink:href="#ajptlPvk" opacity="1" fill="#000000" fill-opacity="0"/>
<use xlink:href="#ajptlPvk" opacity="1" fill-opacity="0" stroke="#c8c8c8" stroke-width="10" stroke-opacity="1"/>
<use xlink:href="#a1AOQ6Su14" opacity="1" fill="#000000" fill-opacity="0"/>
<use xlink:href="#a1AOQ6Su14" opacity="1" fill-opacity="0" stroke="#c8c8c8" stroke-width="10" stroke-opacity="1"/>
<use xlink:href="#a1L5VPCLBq" opacity="0.25" fill="#000000" fill-opacity="1"/>
<use xlink:href="#a1L5VPCLBq" opacity="0.25" fill-opacity="0" stroke="#000000" stroke-width="1" stroke-opacity="0"/>
<use xlink:href="#e17t9xyHpT" opacity="1" fill="#000000" fill-opacity="1"/>
<use xlink:href="#e17t9xyHpT" opacity="1" fill-opacity="0" stroke="#000000" stroke-width="1" stroke-opacity="0"/>
<use xlink:href="#aEnOERMys" opacity="1" fill="#ffffff" fill-opacity="1"/>
<use xlink:href="#aEnOERMys" opacity="1" fill-opacity="0" stroke="#000000" stroke-width="1" stroke-opacity="0"/>
<use xlink:href="#jCpSQYuww" opacity="1" fill="#ffffff" fill-opacity="1"/>
<use xlink:href="#jCpSQYuww" opacity="1" fill-opacity="0" stroke="#000000" stroke-width="1" stroke-opacity="0"/>
</svg>