<?xml version="1.0" encoding="UTF-8" standalone="no"?>
<!DOCTYPE svg PUBLIC "-//W3C//DTD SVG 1.1//EN" "http://www.w3.org/Graphics/SVG/1.1/DTD/svg11.dtd">
<svg version="1.1" xmlns="http://www.w3.org/2000/svg" xmlns:xlink="http://www.w3.org/1999/xlink" preserveAspectRatio="xMidYMid meet" viewBox="0 0 430 430" width="430" height="430"><defs><path d="M366.62 102.95C366.62 100.67 366.62 82.42 366.62 80.14C366.62 74.64 362.12 70.14 356.62 70.14C328.29 70.14 101.71 70.14 73.38 70.14C67.88 70.14 63.38 74.64 63.38 80.14C63.38 82.42 63.38 100.67 63.38 102.95C63.38 108.45 67.88 112.95 73.38 112.95C92.27 112.95 186.68 112.95 356.62 112.95C363.28 109.95 366.62 106.62 366.62 102.95Z" id="aBB9aVEL"></path><path d="M214.78 382.84L349.79 304.9L349.79 104.47L79.78 104.47L79.78 304.9L214.78 382.84Z" id="aEF2yvvL9"></path><path d="M337.31 104.47L337.31 141.93L92.25 141.93L92.25 103.41" id="c1rEgk99yC"></path><path d="M214.78 412.95L337.31 342.21L337.31 141.93L92.25 141.93L92.25 342.21L214.78 412.95Z" id="bUS9pL1A9"></path><path d="M79.78 172.61L79.78 161.86L92.25 161.86L92.25 172.61L79.78 172.61Z" id="e2sKEYbAl3"></path><path d="M337.31 172.61L337.31 161.86L349.79 161.86L349.79 172.61L337.31 172.61Z" id="c2AHf8cTQ0"></path><path d="M214.78 412.95L90.37 341.13L214.78 417.05L339.18 341.13L214.78 412.95Z" id="c1XjSxLt0I"></path><path d="M135.69 368.79L108.78 341.9L108.78 141.93L92.25 141.93L92.25 342.21L135.69 368.79ZM320.78 343.65L291.27 370.38L337.3 342.22L337.3 141.93L320.78 141.93L320.78 343.65Z" id="baRZViQrM"></path><path d="M289.15 155.76C289.15 155.76 291.98 155.76 295.46 155.76C298.95 155.76 301.78 151.26 301.78 145.76C301.78 143.48 301.78 125.23 301.78 122.95C301.78 117.45 297.28 112.95 291.78 112.95C276.43 112.95 153.57 112.95 138.21 112.95C132.71 112.95 128.21 117.45 128.21 122.95C128.21 125.23 128.21 143.48 128.21 145.76C128.21 151.26 131.01 155.76 134.4 155.76C137.8 155.76 140.59 155.76 140.59 155.76" id="a1EmZ8VARy"></path><path d="M231.28 70.14L198.71 70.14" id="hyHEuYRHs"></path><path d="M214.78 70.14L214.78 92.95" id="b1anoKoLEv"></path><path d="M186.18 29.46L214.78 12.95L243.37 29.46L214.78 70.14L186.18 29.46Z" id="c1ycra5DnO"></path><path d="M289.15 135.76C289.15 135.76 291.98 135.76 295.46 135.76C298.95 135.76 301.78 131.26 301.78 125.76C301.78 123.48 301.78 105.23 301.78 102.95C301.78 97.45 297.28 92.95 291.78 92.95C276.43 92.95 153.57 92.95 138.21 92.95C132.71 92.95 128.21 97.45 128.21 102.95C128.21 105.23 128.21 123.48 128.21 125.76C128.21 131.26 131.01 135.76 134.4 135.76C137.8 135.76 140.59 135.76 140.59 135.76" id="achQxQuoP"></path><path d="M282.28 174.95L214.78 174.95L147.28 174.95L147.28 342.98L214.78 381.95L282.28 342.98L282.28 174.95Z" id="d8TaHspTnq"></path><path d="M288.4 103.47L214.78 103.47L141.16 103.47L141.16 321.06L214.78 363.56L288.4 321.06L288.4 103.47Z" id="a10VKgY1nB"></path><path d="M182.58 163.69L200.28 163.69L200.28 257.59L182.58 257.59L182.58 163.69Z" id="a6EWBuxMti"></path><path d="M229.28 163.69L246.98 163.69L246.98 257.59L229.28 257.59L229.28 163.69Z" id="a2etBbu6Tf"></path><path d="M214.78 343.56L288.4 301.06L288.4 311.06L214.78 353.56L141.16 311.06L141.16 301.06L214.78 343.56Z" id="a5ggdoBlJl"></path><path d="M214.78 323.56L288.4 281.06L288.4 291.06L214.78 333.56L141.16 291.06L141.16 281.06L214.78 323.56Z" id="cQL2yHTRc"></path></defs><g><g><g><use xlink:href="#aBB9aVEL" opacity="1" fill="#000000" fill-opacity="0"></use><g><use xlink:href="#aBB9aVEL" opacity="1" fill-opacity="0" stroke="#c8c8c8" stroke-width="10" stroke-opacity="1"></use></g></g><g><use xlink:href="#aEF2yvvL9" opacity="1" fill="#7f6029" fill-opacity="1"></use><g><use xlink:href="#aEF2yvvL9" opacity="1" fill-opacity="0" stroke="#000000" stroke-width="1" stroke-opacity="0"></use></g></g><g><use xlink:href="#c1rEgk99yC" opacity="1" fill="#a57d35" fill-opacity="1"></use><g><use xlink:href="#c1rEgk99yC" opacity="1" fill-opacity="0" stroke="#000000" stroke-width="1" stroke-opacity="0"></use></g></g><g><use xlink:href="#bUS9pL1A9" opacity="1" fill="#bc783c" fill-opacity="1"></use><g><use xlink:href="#bUS9pL1A9" opacity="1" fill-opacity="0" stroke="#000000" stroke-width="1" stroke-opacity="0"></use></g></g><g><use xlink:href="#e2sKEYbAl3" opacity="0.25" fill="#231f20" fill-opacity="1"></use><g><use xlink:href="#e2sKEYbAl3" opacity="0.25" fill-opacity="0" stroke="#000000" stroke-width="1" stroke-opacity="0"></use></g></g><g><use xlink:href="#c2AHf8cTQ0" opacity="0.25" fill="#231f20" fill-opacity="1"></use><g><use xlink:href="#c2AHf8cTQ0" opacity="0.25" fill-opacity="0" stroke="#000000" stroke-width="1" stroke-opacity="0"></use></g></g><g><use xlink:href="#c1XjSxLt0I" opacity="1" fill="#e5ad4a" fill-opacity="1"></use><g><use xlink:href="#c1XjSxLt0I" opacity="1" fill-opacity="0" stroke="#000000" stroke-width="1" stroke-opacity="0"></use></g></g><g><use xlink:href="#baRZViQrM" opacity="1" fill="#bc783c" fill-opacity="1"></use><g><use xlink:href="#baRZViQrM" opacity="1" fill-opacity="0" stroke="#000000" stroke-width="1" stroke-opacity="0"></use></g></g><g><use xlink:href="#a1EmZ8VARy" opacity="0.25" fill="#000000" fill-opacity="0"></use><g><use xlink:href="#a1EmZ8VARy" opacity="0.25" fill-opacity="0" stroke="#231f20" stroke-width="10" stroke-opacity="1"></use></g></g><g><use xlink:href="#hyHEuYRHs" opacity="0.25" fill="#000000" fill-opacity="0"></use><g><use xlink:href="#hyHEuYRHs" opacity="0.25" fill-opacity="0" stroke="#231f20" stroke-width="10" stroke-opacity="1"></use></g></g><g><use xlink:href="#b1anoKoLEv" opacity="1" fill="#000000" fill-opacity="0"></use><g><use xlink:href="#b1anoKoLEv" opacity="1" fill-opacity="0" stroke="#c8c8c8" stroke-width="10" stroke-opacity="1"></use></g></g><g><use xlink:href="#c1ycra5DnO" opacity="1" fill="#000000" fill-opacity="0"></use><g><use xlink:href="#c1ycra5DnO" opacity="1" fill-opacity="0" stroke="#c8c8c8" stroke-width="10" stroke-opacity="1"></use></g></g><g><use xlink:href="#achQxQuoP" opacity="1" fill="#000000" fill-opacity="0"></use><g><use xlink:href="#achQxQuoP" opacity="1" fill-opacity="0" stroke="#c8c8c8" stroke-width="10" stroke-opacity="1"></use></g></g><g><use xlink:href="#d8TaHspTnq" opacity="1" fill="#000000" fill-opacity="1"></use><g><use xlink:href="#d8TaHspTnq" opacity="1" fill-opacity="0" stroke="#000000" stroke-width="1" stroke-opacity="0"></use></g></g><g><use xlink:href="#a10VKgY1nB" opacity="1" fill="#000000" fill-opacity="1"></use><g><use xlink:href="#a10VKgY1nB" opacity="1" fill-opacity="0" stroke="#000000" stroke-width="1" stroke-opacity="0"></use></g></g><g><use xlink:href="#a6EWBuxMti" opacity="1" fill="#ffffff" fill-opacity="1"></use><g><use xlink:href="#a6EWBuxMti" opacity="1" fill-opacity="0" stroke="#000000" stroke-width="1" stroke-opacity="0"></use></g></g><g><use xlink:href="#a2etBbu6Tf" opacity="1" fill="#ffffff" fill-opacity="1"></use><g><use xlink:href="#a2etBbu6Tf" opacity="1" fill-opacity="0" stroke="#000000" stroke-width="1" stroke-opacity="0"></use></g></g><g><use xlink:href="#a5ggdoBlJl" opacity="1" fill="#ffffff" fill-opacity="1"></use><g><use xlink:href="#a5ggdoBlJl" opacity="1" fill-opacity="0" stroke="#000000" stroke-width="1" stroke-opacity="0"></use></g></g><g><use xlink:href="#cQL2yHTRc" opacity="1" fill="#ffffff" fill-opacity="1"></use><g><use xlink:href="#cQL2yHTRc" opacity="1" fill-opacity="0" stroke="#000000" stroke-width="1" stroke-opacity="0"></use></g></g></g></g></svg>