<?xml version="1.0" encoding="UTF-8" standalone="no"?>
<!DOCTYPE svg PUBLIC "-//W3C//DTD SVG 1.1//EN" "http://www.w3.org/Graphics/SVG/1.1/DTD/svg11.dtd">
<svg version="1.1" xmlns="http://www.w3.org/2000/svg" xmlns:xlink="http://www.w3.org/1999/xlink" preserveAspectRatio="xMidYMid meet" viewBox="0 0 430 430" width="430" height="430"><defs><path d="M366.62 102.95C366.62 100.67 366.62 82.42 366.62 80.14C366.62 74.64 362.12 70.14 356.62 70.14C328.29 70.14 101.71 70.14 73.38 70.14C67.88 70.14 63.38 74.64 63.38 80.14C63.38 82.42 63.38 100.67 63.38 102.95C63.38 108.45 67.88 112.95 73.38 112.95C92.27 112.95 186.68 112.95 356.62 112.95C363.28 109.95 366.62 106.62 366.62 102.95Z" id="nCkcXKLyf"></path><path d="M214.79 382.84L349.79 304.9L349.79 104.47L79.79 104.47L79.79 304.9L214.79 382.84Z" id="agcQJuZ9"></path><path d="M337.31 104.47L337.31 141.93L92.26 141.93L92.26 103.41" id="a3Abj2QCh"></path><path d="M214.79 412.95L337.31 342.21L337.31 141.93L92.26 141.93L92.26 342.21L214.79 412.95Z" id="d29K3KGLrG"></path><path d="M337.31 172.61L337.31 161.86L349.79 161.86L349.79 172.61L337.31 172.61Z" id="cfqoys23U"></path><path d="M214.79 412.95L90.38 341.13L214.79 417.05L339.18 341.13L214.79 412.95Z" id="dJ7g02HGK"></path><path d="M289.15 155.76C289.15 155.76 291.99 155.76 295.47 155.76C298.95 155.76 301.78 151.26 301.78 145.76C301.78 143.48 301.78 125.23 301.78 122.95C301.78 117.45 297.28 112.95 291.78 112.95C276.43 112.95 153.57 112.95 138.22 112.95C132.72 112.95 128.22 117.45 128.22 122.95C128.22 125.23 128.22 143.48 128.22 145.76C128.22 151.26 131.01 155.76 134.41 155.76C137.8 155.76 140.6 155.76 140.6 155.76" id="a7czwYyM06"></path><path d="M231.29 70.14L198.72 70.14" id="j1ENMZZqx4"></path><path d="M214.79 70.14L214.79 92.95" id="c2xjoJ2vlb"></path><path d="M186.19 29.46L214.79 12.95L243.37 29.46L214.79 70.14L186.19 29.46Z" id="alNRDRgSR"></path><path d="M289.15 135.76C289.15 135.76 291.99 135.76 295.47 135.76C298.95 135.76 301.78 131.26 301.78 125.76C301.78 123.48 301.78 105.23 301.78 102.95C301.78 97.45 297.28 92.95 291.78 92.95C276.43 92.95 153.57 92.95 138.22 92.95C132.72 92.95 128.22 97.45 128.22 102.95C128.22 105.23 128.22 123.48 128.22 125.76C128.22 131.26 131.01 135.76 134.41 135.76C137.8 135.76 140.6 135.76 140.6 135.76" id="b7q7ZDqGO"></path><path d="M282.28 174.95L214.79 174.95L147.29 174.95L147.29 373.12L214.79 412.09L282.28 373.12L282.28 174.95Z" id="i4hijaW0k"></path><path d="M288.4 103.41L214.79 103.41L141.17 103.41L141.17 351.2L214.79 393.7L288.4 351.2L288.4 103.41Z" id="a2mdJEbIbi"></path><path d="M227.6 188.86L272.02 188.86L236.08 214.97L249.8 257.22L213.87 231.11L177.93 257.22L191.66 214.97L155.72 188.86L200.14 188.86L213.87 146.61L227.6 188.86Z" id="a3558gyl2i"></path><path d="M214.79 356.09L288.4 313.59L288.4 323.59L214.79 366.09L141.17 323.59L141.17 313.59L214.79 356.09Z" id="j3rTQJcWgv"></path><path d="M214.79 336.09L288.4 293.59L288.4 303.59L214.79 346.09L141.17 303.59L141.17 293.59L214.79 336.09Z" id="b4kQ8yJBZF"></path><path d="M214.79 316.09L288.4 273.59L288.4 283.59L214.79 326.09L141.17 283.59L141.17 273.59L214.79 316.09Z" id="d3iQXxh5cZ"></path><path d="M214.79 281.09L175.81 303.59L175.81 293.59L214.79 271.09L253.77 293.59L253.77 303.59L214.79 281.09Z" id="f1WlAmSmv3"></path><path d="M79.78 172.61L79.78 161.86L92.26 161.86L92.26 172.61L79.78 172.61Z" id="b1nYGkAh7"></path></defs><g><g><g><use xlink:href="#nCkcXKLyf" opacity="1" fill="#000000" fill-opacity="0"></use><g><use xlink:href="#nCkcXKLyf" opacity="1" fill-opacity="0" stroke="#c8c8c8" stroke-width="10" stroke-opacity="1"></use></g></g><g><use xlink:href="#agcQJuZ9" opacity="1" fill="#7f6029" fill-opacity="1"></use><g><use xlink:href="#agcQJuZ9" opacity="1" fill-opacity="0" stroke="#000000" stroke-width="1" stroke-opacity="0"></use></g></g><g><use xlink:href="#a3Abj2QCh" opacity="1" fill="#a57d35" fill-opacity="1"></use><g><use xlink:href="#a3Abj2QCh" opacity="1" fill-opacity="0" stroke="#000000" stroke-width="1" stroke-opacity="0"></use></g></g><g><use xlink:href="#d29K3KGLrG" opacity="1" fill="#bc783c" fill-opacity="1"></use><g><use xlink:href="#d29K3KGLrG" opacity="1" fill-opacity="0" stroke="#000000" stroke-width="1" stroke-opacity="0"></use></g></g><g><use xlink:href="#cfqoys23U" opacity="0.25" fill="#231f20" fill-opacity="1"></use><g><use xlink:href="#cfqoys23U" opacity="0.25" fill-opacity="0" stroke="#000000" stroke-width="1" stroke-opacity="0"></use></g></g><g><use xlink:href="#dJ7g02HGK" opacity="1" fill="#e5ad4a" fill-opacity="1"></use><g><use xlink:href="#dJ7g02HGK" opacity="1" fill-opacity="0" stroke="#000000" stroke-width="1" stroke-opacity="0"></use></g></g><g><use xlink:href="#a7czwYyM06" opacity="0.25" fill="#000000" fill-opacity="0"></use><g><use xlink:href="#a7czwYyM06" opacity="0.25" fill-opacity="0" stroke="#231f20" stroke-width="10" stroke-opacity="1"></use></g></g><g><use xlink:href="#j1ENMZZqx4" opacity="0.25" fill="#000000" fill-opacity="0"></use><g><use xlink:href="#j1ENMZZqx4" opacity="0.25" fill-opacity="0" stroke="#231f20" stroke-width="10" stroke-opacity="1"></use></g></g><g><use xlink:href="#c2xjoJ2vlb" opacity="1" fill="#000000" fill-opacity="0"></use><g><use xlink:href="#c2xjoJ2vlb" opacity="1" fill-opacity="0" stroke="#c8c8c8" stroke-width="10" stroke-opacity="1"></use></g></g><g><use xlink:href="#alNRDRgSR" opacity="1" fill="#000000" fill-opacity="0"></use><g><use xlink:href="#alNRDRgSR" opacity="1" fill-opacity="0" stroke="#c8c8c8" stroke-width="10" stroke-opacity="1"></use></g></g><g><use xlink:href="#b7q7ZDqGO" opacity="1" fill="#000000" fill-opacity="0"></use><g><use xlink:href="#b7q7ZDqGO" opacity="1" fill-opacity="0" stroke="#c8c8c8" stroke-width="10" stroke-opacity="1"></use></g></g><g><use xlink:href="#i4hijaW0k" opacity="0.25" fill="#000000" fill-opacity="1"></use><g><use xlink:href="#i4hijaW0k" opacity="0.25" fill-opacity="0" stroke="#000000" stroke-width="1" stroke-opacity="0"></use></g></g><g><use xlink:href="#a2mdJEbIbi" opacity="1" fill="#000000" fill-opacity="1"></use><g><use xlink:href="#a2mdJEbIbi" opacity="1" fill-opacity="0" stroke="#000000" stroke-width="1" stroke-opacity="0"></use></g></g><g><use xlink:href="#a3558gyl2i" opacity="1" fill="#ffffff" fill-opacity="1"></use><g><use xlink:href="#a3558gyl2i" opacity="1" fill-opacity="0" stroke="#000000" stroke-width="1" stroke-opacity="0"></use></g></g><g><use xlink:href="#j3rTQJcWgv" opacity="1" fill="#ffffff" fill-opacity="1"></use><g><use xlink:href="#j3rTQJcWgv" opacity="1" fill-opacity="0" stroke="#000000" stroke-width="1" stroke-opacity="0"></use></g></g><g><use xlink:href="#b4kQ8yJBZF" opacity="1" fill="#ffffff" fill-opacity="1"></use><g><use xlink:href="#b4kQ8yJBZF" opacity="1" fill-opacity="0" stroke="#000000" stroke-width="1" stroke-opacity="0"></use></g></g><g><use xlink:href="#d3iQXxh5cZ" opacity="1" fill="#ffffff" fill-opacity="1"></use><g><use xlink:href="#d3iQXxh5cZ" opacity="1" fill-opacity="0" stroke="#000000" stroke-width="1" stroke-opacity="0"></use></g></g><g><use xlink:href="#f1WlAmSmv3" opacity="1" fill="#ffffff" fill-opacity="1"></use><g><use xlink:href="#f1WlAmSmv3" opacity="1" fill-opacity="0" stroke="#000000" stroke-width="1" stroke-opacity="0"></use></g></g><g><use xlink:href="#b1nYGkAh7" opacity="0.25" fill="#231f20" fill-opacity="1"></use><g><use xlink:href="#b1nYGkAh7" opacity="0.25" fill-opacity="0" stroke="#000000" stroke-width="1" stroke-opacity="0"></use></g></g></g></g></svg>