<svg width="28" height="28" viewBox="0 0 28 28" fill="none" xmlns="http://www.w3.org/2000/svg">
<path fill-rule="evenodd" clip-rule="evenodd" d="M14 28C21.732 28 28 21.732 28 14C28 6.26801 21.732 0 14 0C6.26801 0 0 6.26801 0 14C0 21.732 6.26801 28 14 28Z" fill="#1E2329"/>
<path d="M13.975 21C13.429 20.4655 12.8998 19.9447 12.3678 19.4279C10.9873 18.0842 9.60134 16.746 8.22513 15.3983C7.43972 14.6299 6.99172 13.7106 7.00012 12.6103C7.00144 11.8186 7.27202 11.0495 7.76977 10.4226C8.26753 9.79571 8.96458 9.34613 9.75254 9.14378C11.1357 8.79291 12.3678 9.10298 13.408 10.0686C13.5984 10.2454 13.7678 10.4439 13.9778 10.6642C14.1766 10.4575 14.332 10.2875 14.4986 10.1202C14.9254 9.69001 15.4541 9.36783 16.0386 9.18184C16.6231 8.99585 17.2456 8.9517 17.8517 9.05325C18.4579 9.1548 19.0292 9.39896 19.5158 9.76441C20.0024 10.1299 20.3894 10.6055 20.6432 11.1497C21.2816 12.5002 21.0338 13.7894 20.135 14.9699C20.018 15.1203 19.8898 15.2621 19.7514 15.3942C17.8773 17.2166 16.0031 19.0394 14.129 20.8626C14.0884 20.9021 14.045 20.9388 13.975 21Z" fill="#1FC26D"/>
</svg>
