<svg width="28" height="28" viewBox="0 0 28 28" fill="none" xmlns="http://www.w3.org/2000/svg">
<path fill-rule="evenodd" clip-rule="evenodd" d="M14 28C21.732 28 28 21.732 28 14C28 6.26801 21.732 0 14 0C6.26801 0 0 6.26801 0 14C0 21.732 6.26801 28 14 28Z" fill="#1E2329"/>
<path fill-rule="evenodd" clip-rule="evenodd" d="M13.9742 16.2748C13.9742 16.2748 14.3832 18.4756 12.4646 20.9999C12.4646 20.9999 21.9149 21.025 22 10.4757C22 10.4757 19.7148 12.9624 17.8878 12.6903C16.0024 14.4438 13.9742 16.2748 13.9742 16.2748Z" fill="#FAD155"/>
<path fill-rule="evenodd" clip-rule="evenodd" d="M8 16.9261V19.5651L19.0686 9.06363V8H17.5395L8 16.9261Z" fill="#FAD155"/>
<path fill-rule="evenodd" clip-rule="evenodd" d="M8 13.4425V14.8164L9.41442 13.4425H8Z" fill="#FAD155"/>
<path fill-rule="evenodd" clip-rule="evenodd" d="M8 11.0099V12.2843H11.0628L12.3748 11.0099H8Z" fill="#FAD155"/>
<path fill-rule="evenodd" clip-rule="evenodd" d="M8 8V9.28756H13.9729L15.2985 8H8Z" fill="#FAD155"/>
</svg>
