<svg width="28" height="28" viewBox="0 0 28 28" fill="none" xmlns="http://www.w3.org/2000/svg">
<path fill-rule="evenodd" clip-rule="evenodd" d="M14 28C21.732 28 28 21.732 28 14C28 6.26801 21.732 0 14 0C6.26801 0 0 6.26801 0 14C0 21.732 6.26801 28 14 28Z" fill="#1E2329"/>
<mask id="mask0" mask-type="alpha" maskUnits="userSpaceOnUse" x="3" y="5" width="10" height="17">
<path d="M12.5 5H3.5V22H12.5V5Z" fill="#C4C4C4"/>
</mask>
<g mask="url(#mask0)">
<path d="M15.5 14C15.5 15.6569 14.1569 17 12.5 17C10.8431 17 9.5 15.6569 9.5 14C9.5 12.3431 10.8431 11 12.5 11C14.1569 11 15.5 12.3431 15.5 14Z" fill="#C593D2"/>
<path fill-rule="evenodd" clip-rule="evenodd" d="M12.5 21C16.366 21 19.5 17.866 19.5 14C19.5 10.134 16.366 7 12.5 7C8.63401 7 5.5 10.134 5.5 14C5.5 17.866 8.63401 21 12.5 21ZM17.75 14C17.75 16.8995 15.3995 19.25 12.5 19.25C9.6005 19.25 7.25 16.8995 7.25 14C7.25 11.1005 9.6005 8.75 12.5 8.75C15.3995 8.75 17.75 11.1005 17.75 14Z" fill="#C593D2"/>
</g>
<mask id="mask1" mask-type="alpha" maskUnits="userSpaceOnUse" x="15" y="5" width="10" height="18">
<path d="M15 22L24.5 22L24.5 5L15 5L15 22Z" fill="#C4C4C4"/>
</mask>
<g mask="url(#mask1)">
<path fill-rule="evenodd" clip-rule="evenodd" d="M21 8.5V14.403C20.4431 16.0106 18.5673 18.5268 15 19.4564C11.4327 18.5268 9.55695 16.0106 9 14.403V8.5H21ZM15 21C19.5 19.9818 21.875 16.7576 22.5 14.6364V7H7.5V14.6364C8.125 16.7576 10.5 19.9818 15 21ZM17.5 11V14.2727C17.25 15.1818 16.3 16.5636 14.5 17C12.7 16.5636 11.75 15.1818 11.5 14.2727V11H17.5Z" fill="#F0775A"/>
</g>
</svg>
